<?xml version="1.0" encoding="utf-8"?>
<!-- Generator: Adobe Illustrator 23.0.1, SVG Export Plug-In . SVG Version: 6.00 Build 0)  -->
<svg version="1.1" id="Layer_1" xmlns="http://www.w3.org/2000/svg" xmlns:xlink="http://www.w3.org/1999/xlink" x="0px" y="0px"
	 viewBox="-294 386.7 21.2 21.3" style="enable-background:new -294 386.7 21.2 21.3;" xml:space="preserve">
<g>
	<path d="M-289.95,389.42c0.22-0.03,0.45-0.04,0.7-0.04c0.66,0,1.31,0,1.97,0c1.31,0,2.63,0,3.94,0c0.42,0,0.84,0,1.26,0
		c1,0,2,0,2.99,0c0.5,0,1,0,1.5,0c0.67,0,1.31,0.05,1.84,0.51c0.46,0.4,0.68,0.98,0.69,1.58c0,2.93,0,5.86,0,8.8
		c0,0.57-0.39,0.97-0.96,0.97c-4.91,0-9.83,0-14.74,0c-0.57,0-0.96-0.4-0.96-0.97c0-0.64,0-1.27,0-1.91c0-2.29,0-4.58,0-6.87
		c0-0.73,0.28-1.33,0.89-1.73C-290.55,389.56-290.26,389.47-289.95,389.42z M-281.92,394.03c0.69-1,0.32-1.99-0.22-2.49
		c-0.63-0.58-1.58-0.66-2.29-0.18c-0.36,0.24-0.61,0.57-0.74,0.99c-0.19,0.61-0.06,1.18,0.3,1.68c-0.19,0.16-0.37,0.3-0.53,0.46
		c-0.61,0.62-0.82,1.39-0.78,2.24c0.02,0.38,0.23,0.61,0.62,0.61c0.57,0,1.15,0,1.72,0c0.88,0,1.75,0,2.63,0
		c0.31,0,0.56-0.19,0.58-0.48c0.07-0.84-0.1-1.63-0.69-2.27C-281.5,394.4-281.71,394.23-281.92,394.03z M-283.41,399.57
		c1.22,0,2.44,0,3.66,0c0.26,0,0.46-0.1,0.56-0.34c0.17-0.38-0.12-0.77-0.56-0.77c-1.97,0-3.94,0-5.9,0c-0.48,0-0.95,0-1.43,0
		c-0.25,0-0.44,0.12-0.54,0.35c-0.16,0.38,0.12,0.76,0.56,0.76C-285.84,399.57-284.63,399.57-283.41,399.57z"/>
	<path d="M-275.7,405.27c-0.64,0.11-1.35,0.04-1.96,0.04c-0.66,0-1.31,0-1.97,0c-1.31,0-2.62,0-3.94,0c-1.3,0-2.6,0-3.9,0
		c-0.66,0-1.31,0-1.97,0c-0.33,0-0.66,0-0.98,0c-0.83,0-1.63-0.13-2.11-0.9c-0.26-0.42-0.62-1.35-0.27-1.8
		c0.16-0.21,0.41-0.26,0.66-0.26c5.83,0.01,11.65,0.01,17.48,0c0.27,0,0.59,0.07,0.71,0.35c0.2,0.46,0,1.15-0.22,1.57
		C-274.51,404.9-275.07,405.17-275.7,405.27z"/>
	<path d="M-281.76,396.23c-1.09,0-2.18,0-3.27,0c-0.02-0.72,0.75-1.44,1.55-1.47C-282.59,394.73-281.8,395.41-281.76,396.23z"/>
	<path d="M-283.4,392.16c0.41,0,0.74,0.34,0.74,0.74c0,0.41-0.34,0.74-0.74,0.74c-0.41,0-0.74-0.34-0.74-0.74
		C-284.14,392.49-283.8,392.16-283.4,392.16z"/>
</g>
</svg>
