<?xml version="1.0" encoding="utf-8"?>
<!-- Generator: Adobe Illustrator 23.0.1, SVG Export Plug-In . SVG Version: 6.00 Build 0)  -->
<svg version="1.1" id="Layer_1" xmlns="http://www.w3.org/2000/svg" xmlns:xlink="http://www.w3.org/1999/xlink" x="0px" y="0px"
	 viewBox="-294 386.7 21.2 21.3" style="enable-background:new -294 386.7 21.2 21.3;" xml:space="preserve">
<g>
	<path d="M-292.56,396.44c0.12-0.34,0.33-0.61,0.69-0.79c0,0.09,0,0.17,0,0.24c0,1.42,0,2.84,0,4.25c0,0.4,0.15,0.64,0.45,0.76
		c0.3,0.11,0.56,0.03,0.82-0.26c0.74-0.81,1.48-1.63,2.22-2.45c0.15-0.16,0.33-0.24,0.54-0.19c0.21,0.06,0.38,0.2,0.39,0.41
		c0.01,0.16-0.05,0.36-0.14,0.49c-0.26,0.36-0.56,0.7-0.85,1.03c-0.22,0.25-0.33,0.53-0.32,0.87c0.01,0.57-0.19,1.07-0.59,1.48
		c-0.54,0.55-0.79,1.22-0.79,1.99c0.01,0.91,0,1.83,0,2.74c-0.81,0-1.61,0-2.42,0C-292.56,403.5-292.56,399.97-292.56,396.44z"/>
	<path d="M-276.88,387.67c0.18,0.12,0.22,0.29,0.22,0.5c-0.01,2.14,0,4.28,0,6.41c0,0.14-0.03,0.24-0.14,0.34
		c-0.18,0.16-0.34,0.34-0.55,0.55c0-2.4,0-4.74,0-7.1c-4.38,0-8.75,0-13.14,0c0,0.08,0,0.16,0,0.24c0,3.54,0,7.08,0,10.62
		c0,0.18-0.04,0.31-0.17,0.44c-0.17,0.17-0.32,0.35-0.51,0.55c-0.01-0.09-0.02-0.15-0.02-0.21c0-3.97,0-7.93,0-11.9
		c0-0.2,0.07-0.34,0.22-0.46C-286.27,387.67-281.57,387.67-276.88,387.67z"/>
	<path d="M-274.24,406.51c-0.06-0.05-0.12-0.1-0.18-0.15c-1.03-1.03-2.06-2.05-3.08-3.08c-0.27-0.27-0.58-0.41-0.96-0.4
		c-0.21,0.01-0.42,0-0.63,0c-0.33,0-0.65-0.08-0.92-0.27c-0.54-0.39-1.08-0.79-1.61-1.2c-0.15-0.11-0.21-0.27-0.15-0.46
		c0.06-0.18,0.18-0.29,0.36-0.29c0.11,0,0.23,0.04,0.32,0.1c0.46,0.25,0.91,0.52,1.37,0.78c0.44,0.25,0.91,0.19,1.23-0.14
		c0.33-0.34,0.36-0.81,0.08-1.25c-0.22-0.34-0.22-0.34,0.06-0.62c0.17-0.17,0.35-0.35,0.52-0.52c0.01-0.01,0.02-0.01,0.05-0.03
		c0.03,0.04,0.07,0.08,0.1,0.12c0.04,0.05,0.07,0.11,0.1,0.16c0.84,1.54,1.96,2.85,3.25,4.02c0.03,0.02,0.05,0.05,0.08,0.07
		C-274.24,404.41-274.24,405.46-274.24,406.51z"/>
	<path d="M-283.33,400.12c-0.31,0-0.61,0-0.92,0c0,0.23,0,0.45,0,0.69c0.23,0,0.45,0.01,0.67,0c0.17-0.01,0.29,0.01,0.35,0.19
		c0.02,0.07,0.08,0.13,0.15,0.23c-0.13,0.12-0.26,0.25-0.39,0.38c-0.34,0.34-0.69,0.68-1.02,1.02c-0.05,0.06-0.11,0.14-0.11,0.22
		c-0.01,0.46,0,0.92,0,1.42c0.26,0,0.52-0.03,0.77,0.01c0.55,0.08,0.95-0.12,1.3-0.54c0.37-0.44,0.8-0.82,1.22-1.23
		c0.25,0.18,0.48,0.35,0.7,0.53c0.48,0.38,1.03,0.56,1.64,0.55c0.2,0,0.4,0,0.6,0c0.24,0.01,0.32,0.09,0.32,0.32
		c0,0.34,0,0.69,0,1.05c-3.81,0-7.59,0-11.38,0c-0.09-0.85,0-1.64,0.66-2.27c0.19-0.18,0.31-0.42,0.44-0.59
		c0.29,0.04,0.56,0.1,0.84,0.11c0.37,0.02,0.75,0.01,1.12,0c0.62-0.01,1.06-0.44,1.07-1.06c0-0.44,0-0.88,0-1.32
		c0-0.63-0.44-1.07-1.07-1.08c-0.11,0-0.23,0-0.36,0c0.04-0.39-0.06-0.72-0.32-1.04c0.25,0,0.46,0,0.67,0
		c0.63-0.01,1.07-0.44,1.07-1.08c0-0.21,0-0.42,0-0.64c-0.23,0-0.45,0-0.69,0c0,0.21,0,0.42,0,0.63c-0.01,0.27-0.13,0.39-0.4,0.4
		c-0.42,0-0.85,0-1.27,0c-0.27,0-0.39-0.13-0.4-0.4c0-0.42,0-0.85,0-1.27c0-0.27,0.13-0.39,0.4-0.39c0.2,0,0.4,0,0.62,0
		c0-0.23,0-0.45,0-0.71c-0.31,0.02-0.63,0-0.94,0.06c-0.45,0.09-0.76,0.49-0.77,0.95c-0.01,0.49-0.03,0.98,0.01,1.47
		c0.02,0.24,0.14,0.47,0.21,0.69c-0.39,0.41-0.81,0.85-1.25,1.31c0-3.21,0-6.41,0-9.62c3.9,0,7.8,0,11.72,0
		c0,0.07,0.01,0.14,0.01,0.2c0,2.23,0,4.46,0,6.7c0,0.14-0.04,0.24-0.14,0.34c-0.23,0.21-0.44,0.44-0.66,0.65
		c-0.06,0.05-0.16,0.08-0.24,0.08c-0.8-0.01-1.6-0.04-2.39-0.02c-0.43,0.01-0.72,0.29-0.88,0.69c-0.29,0.72-0.58,1.44-0.86,2.16
		C-283.26,399.95-283.29,400.03-283.33,400.12z M-285.96,391.48c-0.02,0.02-0.03,0.03-0.03,0.04c0,0.19,0,0.39-0.01,0.58
		c0,0.28-0.13,0.41-0.41,0.41c-0.42,0-0.83,0-1.25,0c-0.28,0-0.41-0.13-0.41-0.41c0-0.42,0-0.83,0-1.25c0-0.29,0.13-0.41,0.43-0.41
		c0.2,0,0.4,0,0.59,0c0-0.25,0-0.46,0-0.69c-0.25,0-0.48-0.01-0.71,0c-0.55,0.02-0.99,0.46-1,1.01c-0.01,0.47-0.01,0.95,0,1.42
		c0.01,0.56,0.45,1,1,1.01c0.48,0.01,0.96,0.01,1.45,0c0.43-0.01,0.84-0.29,0.94-0.7c0.08-0.33,0.06-0.67,0.09-1.02
		C-285.54,391.48-285.75,391.48-285.96,391.48z M-284.25,389.75c0,0.23,0,0.45,0,0.67c1.72,0,3.44,0,5.15,0c0-0.23,0-0.45,0-0.67
		C-280.82,389.75-282.52,389.75-284.25,389.75z M-284.25,394.92c1.73,0,3.44,0,5.16,0c0-0.23,0-0.45,0-0.67c-1.73,0-3.44,0-5.16,0
		C-284.25,394.48-284.25,394.7-284.25,394.92z M-284.25,391.14c0,0.24,0,0.46,0,0.67c1.38,0,2.75,0,4.12,0c0-0.23,0-0.45,0-0.67
		C-281.51,391.14-282.87,391.14-284.25,391.14z M-284.25,396.3c1.16,0,2.29,0,3.43,0c0-0.23,0-0.45,0-0.67c-1.15,0-2.28,0-3.43,0
		C-284.25,395.86-284.25,396.07-284.25,396.3z M-285.87,389.9c-0.57,0.57-1.14,1.14-1.7,1.7c0.13,0.14,0.28,0.29,0.42,0.43
		c0.57-0.57,1.14-1.14,1.72-1.72C-285.57,390.18-285.73,390.03-285.87,389.9z M-287.15,396.52c0.58-0.58,1.14-1.14,1.69-1.69
		c-0.13-0.15-0.28-0.31-0.4-0.44c-0.58,0.58-1.14,1.14-1.69,1.69C-287.42,396.22-287.28,396.38-287.15,396.52z"/>
	<path d="M-289.44,406.34c0-0.24,0-0.46,0-0.68c4.02,0,8.04,0,12.07,0c0-0.4,0-0.79,0-1.25c0.26,0.26,0.47,0.46,0.67,0.68
		c0.03,0.03,0.03,0.11,0.03,0.16c0,0.22,0,0.45,0,0.67c0,0.31-0.12,0.43-0.44,0.43c-1.09,0-2.17,0-3.26,0c-2.94,0-5.87,0-8.81,0
		C-289.25,406.34-289.34,406.34-289.44,406.34z"/>
	<path d="M-276.97,396.17c0.13,0.14,0.3,0.31,0.48,0.5c-0.03,0.03-0.07,0.08-0.11,0.13c-1.16,1.17-2.33,2.33-3.49,3.5
		c-0.11,0.11-0.19,0.13-0.33,0.04c-0.15-0.1-0.32-0.19-0.45-0.26C-279.58,398.78-278.27,397.48-276.97,396.17z"/>
	<path d="M-285.99,400.46c0,0.22,0.01,0.45,0,0.67c-0.01,0.23-0.14,0.36-0.36,0.37c-0.45,0.01-0.89,0.01-1.34,0
		c-0.23,0-0.35-0.13-0.37-0.36c-0.04-0.35,0.03-0.66,0.3-0.92c0.21-0.2,0.36-0.45,0.56-0.65c0.07-0.07,0.19-0.12,0.29-0.13
		c0.18-0.02,0.37-0.01,0.56,0c0.23,0.01,0.36,0.14,0.36,0.37C-285.99,400.01-285.99,400.24-285.99,400.46z"/>
	<path d="M-282.66,400.7c0-0.13-0.04-0.27,0.01-0.38c0.31-0.8,0.62-1.59,0.96-2.38c0.04-0.1,0.2-0.22,0.3-0.23
		c0.59-0.02,1.18-0.01,1.73-0.01C-280.64,398.68-281.64,399.67-282.66,400.7z"/>
	<path d="M-283.89,403.6c-0.07-0.37-0.02-0.63,0.25-0.87c0.43-0.38,0.82-0.8,1.21-1.2c0.18,0.2,0.35,0.38,0.53,0.57
		c-0.46,0.46-0.92,0.95-1.42,1.39C-283.44,403.6-283.69,403.57-283.89,403.6z"/>
	<path d="M-275.98,396.15c-0.18-0.18-0.35-0.35-0.5-0.5c0.22-0.24,0.42-0.48,0.66-0.7c0.14-0.13,0.36-0.07,0.48,0.07
		c0.13,0.14,0.15,0.35,0.01,0.49C-275.53,395.73-275.75,395.93-275.98,396.15z"/>
	<path d="M-277.26,398.48c0.2-0.21,0.39-0.4,0.6-0.62c0,0.27,0,0.51,0,0.75c0,0.24,0,0.48,0,0.73c-0.01,0.01-0.03,0.01-0.04,0.02
		C-276.89,399.06-277.08,398.76-277.26,398.48z"/>
	<path d="M-279.12,400.35c0.23,0.28,0.26,0.41,0.14,0.55c-0.13,0.15-0.29,0.12-0.61-0.11C-279.44,400.65-279.28,400.5-279.12,400.35
		z"/>
</g>
</svg>
