<?xml version="1.0" encoding="utf-8"?>
<!-- Generator: Adobe Illustrator 23.0.1, SVG Export Plug-In . SVG Version: 6.00 Build 0)  -->
<svg version="1.1" id="Layer_1" xmlns="http://www.w3.org/2000/svg" xmlns:xlink="http://www.w3.org/1999/xlink" x="0px" y="0px"
	 viewBox="-294 386.7 21.2 21.3" style="enable-background:new -294 386.7 21.2 21.3;" xml:space="preserve">
<g>
	<path d="M-292.91,405.42c-0.03-0.24-0.02-0.47-0.02-0.72c0-0.37,0-0.74,0-1.11c0-0.74,0-1.49,0-2.23c0-1.49,0-2.97,0-4.46
		c0-0.29,0-3.5,0-3.5c6.35,0,12.7,0,19.06,0c0,0.06,0,0.1,0,0.13c0,1.49,0,2.97,0,4.46c0,1.49,0,2.97,0,4.46
		c0,0.54,0.01,1.09,0.01,1.63c0,0.5,0.06,1.06-0.07,1.54c-0.2,0.77-0.86,1.25-1.7,1.25c-4.12,0-8.25,0-12.37,0
		c-0.64,0-1.29,0-1.93,0c-0.32,0-0.64,0-0.95,0c-0.45,0-0.87-0.02-1.26-0.26c-0.33-0.21-0.57-0.52-0.69-0.89
		C-292.88,405.63-292.9,405.53-292.91,405.42z M-288.57,399.87c0.28-0.44,0.33-0.89,0.08-1.33c-0.25-0.45-0.66-0.65-1.18-0.63
		c-0.28,0.01-0.56,0-0.84,0c-0.39,0-0.51,0.12-0.51,0.51c0,0.99,0,1.98,0,2.98c0,0.19-0.01,0.38,0,0.58c0.01,0.26,0.15,0.4,0.41,0.4
		c0.42,0,0.84,0.01,1.26,0c0.74-0.02,1.33-0.61,1.34-1.35C-288,400.55-288.2,400.17-288.57,399.87z M-280.74,400.14
		c0-1.23-1-2.23-2.24-2.23c-1.22,0-2.22,1-2.23,2.22c-0.01,1.23,1,2.24,2.23,2.24C-281.75,402.37-280.74,401.37-280.74,400.14z
		 M-276.58,400.51c-0.05,0.54-0.41,0.98-0.89,1.08c-0.81,0.18-1.65-0.41-1.76-1.22c-0.12-0.89,0.52-1.68,1.39-1.72
		c0.33-0.01,0.62,0.07,0.9,0.25c0.14,0.09,0.29,0.1,0.44,0c0.13-0.09,0.19-0.24,0.13-0.37c-0.05-0.12-0.16-0.24-0.27-0.3
		c-0.89-0.53-2.04-0.36-2.74,0.4c-0.72,0.77-0.81,1.91-0.23,2.78c0.66,0.98,2,1.29,2.91,0.67c0.68-0.46,0.91-1.15,0.91-1.93
		c0-0.22-0.16-0.35-0.4-0.35c-0.34,0-0.68,0-1.02,0c-0.26,0-0.42,0.14-0.43,0.36c0,0.23,0.16,0.38,0.43,0.38
		C-277,400.51-276.79,400.51-276.58,400.51z M-286.51,401.63c0-0.1,0-0.17,0-0.24c0-1.02,0-2.03,0-3.05c0-0.26-0.14-0.42-0.36-0.43
		c-0.22,0-0.38,0.16-0.38,0.42c0,1.21,0,2.42,0,3.63c0,0.28,0.15,0.42,0.43,0.42c0.4,0,0.79,0,1.19,0c0.26,0,0.42-0.15,0.42-0.37
		c0-0.23-0.16-0.37-0.42-0.37C-285.91,401.63-286.2,401.63-286.51,401.63z"/>
	<path d="M-292.93,392.29c0-0.53,0-1.05,0-1.58c0-0.26,0-0.52,0-0.78c0-0.28-0.03-0.54,0.04-0.82c0.12-0.47,0.38-0.84,0.8-1.07
		c0.15-0.08,0.31-0.14,0.47-0.18c0.17-0.05,0.32-0.04,0.49-0.04c0.37,0,0.74,0,1.11,0c0.74,0,1.48,0,2.23,0c0.25,0,0.5,0,0.76,0
		c1.48,0,2.97,0,4.45,0c1.48,0,2.97,0,4.45,0c0.56,0,1.11,0,1.67,0c0.27,0,0.55,0,0.82,0c0.48,0,0.98,0.19,1.31,0.55
		c0.31,0.33,0.43,0.78,0.43,1.23c0,0.83,0,1.66,0,2.49c0,0.06,0,0.13,0,0.2C-280.24,392.29-286.59,392.29-292.93,392.29z
		 M-289.73,389.5c-0.13,0-0.26-0.01-0.39,0c-0.3,0.01-0.54,0.26-0.54,0.55c0,0.29,0.23,0.55,0.53,0.56c0.27,0.01,0.53,0.01,0.8,0
		c0.3-0.01,0.53-0.26,0.53-0.56c0-0.3-0.24-0.54-0.54-0.55C-289.47,389.49-289.6,389.5-289.73,389.5z M-286.75,389.5
		c-0.12,0-0.25,0-0.37,0c-0.31,0.01-0.56,0.25-0.56,0.55c0,0.3,0.24,0.55,0.55,0.56c0.25,0.01,0.51,0.01,0.76,0
		c0.31-0.01,0.55-0.26,0.55-0.56c0-0.3-0.24-0.54-0.54-0.55C-286.49,389.49-286.62,389.5-286.75,389.5z M-283.79,390.61
		c0.13,0,0.26,0,0.39,0c0.32-0.01,0.56-0.25,0.56-0.55c0-0.3-0.24-0.55-0.55-0.56c-0.25-0.01-0.51-0.01-0.76,0
		c-0.31,0.01-0.55,0.26-0.55,0.56c0,0.3,0.24,0.54,0.54,0.55C-284.04,390.62-283.91,390.61-283.79,390.61z"/>
	<path d="M-290.26,400.37c0.33,0,0.65-0.02,0.96,0c0.32,0.02,0.55,0.3,0.55,0.62c0,0.32-0.22,0.6-0.54,0.63
		c-0.32,0.03-0.64,0.01-0.97,0.01C-290.26,401.21-290.26,400.8-290.26,400.37z"/>
	<path d="M-290.26,398.65c0.25,0,0.48-0.01,0.72,0c0.27,0.01,0.46,0.23,0.46,0.49c0,0.26-0.19,0.46-0.45,0.47
		c-0.23,0.01-0.47,0-0.72,0C-290.26,399.3-290.26,398.99-290.26,398.65z"/>
	<path d="M-281.49,400.14c0,0.83-0.66,1.49-1.49,1.49c-0.82,0-1.49-0.68-1.48-1.5c0.01-0.82,0.67-1.48,1.48-1.48
		C-282.15,398.65-281.49,399.31-281.49,400.14z"/>
</g>
</svg>
