<?xml version="1.0" encoding="utf-8"?>
<!-- Generator: Adobe Illustrator 23.0.1, SVG Export Plug-In . SVG Version: 6.00 Build 0)  -->
<svg version="1.1" id="Layer_1" xmlns="http://www.w3.org/2000/svg" xmlns:xlink="http://www.w3.org/1999/xlink" x="0px" y="0px"
	 viewBox="-294 386.7 21.2 21.3" style="enable-background:new -294 386.7 21.2 21.3;" xml:space="preserve">
<g>
	<path d="M-286.01,387.81c0.36,0.09,0.71,0.22,0.99,0.47c0.39,0.35,0.63,0.77,0.65,1.29c0.02,0.71,0.01,1.41,0.01,2.12
		c0,0.91,0.01,1.82,0,2.74c-0.01,0.98-0.63,1.74-1.56,1.92c-0.16,0.03-0.32,0.03-0.48,0.03c-1.48,0-2.97-0.02-4.45,0.01
		c-1.04,0.02-1.91-0.67-2.06-1.63c0-0.01-0.01-0.02-0.02-0.03c0-1.76,0-3.53,0-5.29c0.01-0.03,0.03-0.05,0.03-0.08
		c0.09-0.45,0.32-0.82,0.67-1.12c0.27-0.23,0.6-0.34,0.93-0.43C-289.53,387.81-287.77,387.81-286.01,387.81z"/>
	<path d="M-273.86,394.74c-0.09,0.37-0.22,0.72-0.49,1.01c-0.34,0.37-0.76,0.62-1.26,0.63c-0.74,0.02-1.48,0.01-2.22,0.01
		c-0.89,0-1.78,0.01-2.66,0c-0.97-0.01-1.74-0.63-1.92-1.55c-0.03-0.16-0.03-0.33-0.03-0.5c0-1.48,0.02-2.97-0.01-4.45
		c-0.02-1.05,0.67-1.91,1.63-2.06c0.01,0,0.02-0.01,0.03-0.02c1.76,0,3.53,0,5.29,0c0.03,0.01,0.05,0.03,0.08,0.03
		c0.45,0.09,0.81,0.31,1.11,0.66c0.24,0.28,0.35,0.6,0.45,0.94C-273.86,391.22-273.86,392.98-273.86,394.74z"/>
	<path d="M-292.94,399.96c0.09-0.37,0.22-0.72,0.49-1.01c0.34-0.37,0.76-0.62,1.26-0.63c0.71-0.02,1.43-0.01,2.14-0.01
		c0.91,0,1.82-0.01,2.74,0c0.98,0.01,1.74,0.63,1.92,1.56c0.03,0.16,0.03,0.32,0.03,0.48c0,1.48-0.02,2.97,0.01,4.45
		c0.02,1.04-0.66,1.91-1.63,2.06c-0.01,0-0.02,0.01-0.03,0.02c-1.76,0-3.53,0-5.29,0c-0.03-0.01-0.05-0.03-0.08-0.03
		c-0.45-0.09-0.83-0.32-1.12-0.67c-0.23-0.27-0.34-0.6-0.43-0.93C-292.94,403.48-292.94,401.72-292.94,399.96z"/>
	<path d="M-280.79,406.89c-0.37-0.09-0.72-0.22-1.01-0.49c-0.37-0.34-0.62-0.76-0.63-1.26c-0.02-0.8-0.01-1.6-0.01-2.4
		c0-0.83-0.01-1.65,0-2.48c0.01-0.98,0.63-1.74,1.56-1.92c0.16-0.03,0.32-0.03,0.48-0.03c1.48,0,2.97,0.02,4.45-0.01
		c1.05-0.02,1.91,0.67,2.06,1.63c0,0.01,0.01,0.02,0.02,0.03c0,1.76,0,3.53,0,5.29c-0.01,0.03-0.03,0.05-0.03,0.08
		c-0.09,0.45-0.32,0.83-0.67,1.12c-0.27,0.23-0.6,0.34-0.93,0.43C-277.27,406.89-279.03,406.89-280.79,406.89z"/>
</g>
</svg>
