<?xml version="1.0" encoding="utf-8"?>
<!-- Generator: Adobe Illustrator 23.0.1, SVG Export Plug-In . SVG Version: 6.00 Build 0)  -->
<svg version="1.1" id="Layer_1" xmlns="http://www.w3.org/2000/svg" xmlns:xlink="http://www.w3.org/1999/xlink" x="0px" y="0px"
	 viewBox="-294 386.7 21.2 21.3" style="enable-background:new -294 386.7 21.2 21.3;" xml:space="preserve">
<g>
	<path d="M-287.93,390.07c0.09-0.07,0.18-0.21,0.19-0.33c0.02-0.47,0.01-0.94,0-1.42c-0.01-0.3-0.15-0.48-0.48-0.47
		c-0.82,0.01-1.65,0-2.47,0c-0.31,0-0.49,0.15-0.5,0.46c-0.01,1.39,0,2.77,0,4.24C-290.04,391.69-288.98,390.89-287.93,390.07z"/>
	<g>
		<path d="M-273.9,395.37c0.01-0.29-0.1-0.48-0.32-0.65c-2.93-2.23-5.86-4.46-8.79-6.7c-0.29-0.22-0.51-0.21-0.79,0.01
			c-1.06,0.82-2.12,1.62-3.19,2.43c-1.85,1.41-3.7,2.81-5.53,4.23c-0.17,0.13-0.34,0.37-0.36,0.57c-0.04,0.67-0.02,1.35-0.02,2.02
			c0,0.32,0.15,0.47,0.47,0.47c0.39,0,0.78,0,1.24,0c0,0.19,0,0.34,0,0.48c0,2.65,0,5.29,0,7.94c0,0.55,0.11,0.66,0.67,0.66
			c1.09,0,2.19,0,3.28,0c0.12,0,0.23-0.02,0.36-0.03c0-0.2,0-0.36,0-0.53c0-2.89,0-5.78,0-8.67c0-0.59,0.12-0.71,0.71-0.71
			c1.8,0,3.59,0,5.39,0c0.72,0,0.75,0.02,0.91,0.7c-0.01-0.05,1.01-0.22,1.11-0.23c0.36-0.04,0.72-0.04,1.08-0.01
			c0.35,0.04,0.7,0.11,1.04,0.22c0.17,0.05,0.34,0.12,0.5,0.19c0.12,0.05,0.22,0.17,0.36,0.17c0.12,0,0.22-0.1,0.33-0.14
			c0.12-0.05,0.26-0.06,0.39-0.06c0.3,0,0.62,0.07,0.9-0.08c0.17-0.09,0.26-0.24,0.26-0.43C-273.91,396.62-273.92,396-273.9,395.37z
			 M-283.43,394.76c-0.94-0.01-1.71-0.79-1.7-1.74c0.01-0.95,0.79-1.73,1.72-1.73c0.95-0.01,1.75,0.8,1.74,1.76
			C-281.68,394.01-282.45,394.76-283.43,394.76z"/>
		<path d="M-283.33,401.71c0.23-1.51,1.03-2.66,2.28-3.52c0.11-0.07,0.19-0.19,0.28-0.29c-0.02-0.03-0.05-0.05-0.07-0.08
			c-1.71,0-3.41,0-5.13,0c0,3.01,0,6,0,9.01c1.58,0,3.14,0,4.8,0c-0.15-0.12-0.23-0.19-0.31-0.26
			C-282.97,405.28-283.63,403.67-283.33,401.71z"/>
		<path d="M-283.38,392.16c-0.47-0.01-0.87,0.39-0.87,0.87c0.01,0.48,0.37,0.83,0.85,0.83c0.48,0,0.84-0.36,0.85-0.84
			C-282.55,392.56-282.92,392.18-283.38,392.16z"/>
		<g>
			<path d="M-278.74,401.59c0,0.19,0.13,0.31,0.33,0.39v-0.76C-278.62,401.26-278.74,401.38-278.74,401.59z"/>
			<path d="M-278.06,402.92v0.78c0.22-0.04,0.36-0.19,0.36-0.39C-277.71,403.11-277.85,403-278.06,402.92z"/>
			<path d="M-278.23,398.16c-2.37-0.01-4.29,1.91-4.3,4.29c-0.01,2.38,1.87,4.3,4.22,4.31c2.43,0.02,4.38-1.9,4.38-4.29
				C-273.93,400.12-275.88,398.17-278.23,398.16z M-278.06,404.43v0.44h-0.35v-0.45c-0.75-0.07-1.29-0.46-1.32-1.16h1
				c0.02,0.22,0.13,0.36,0.32,0.42v-0.87c-0.59-0.15-1.32-0.32-1.32-1.18c0-0.69,0.58-1.09,1.32-1.14v-0.44h0.35v0.44
				c0.75,0.06,1.23,0.44,1.28,1.14h-1c-0.02-0.2-0.13-0.33-0.28-0.38v0.85c0.59,0.16,1.34,0.32,1.34,1.17
				C-276.72,403.87-277.2,404.39-278.06,404.43z"/>
		</g>
	</g>
</g>
</svg>
