<?xml version="1.0" encoding="utf-8"?>
<!-- Generator: Adobe Illustrator 23.0.1, SVG Export Plug-In . SVG Version: 6.00 Build 0)  -->
<svg version="1.1" id="Layer_1" xmlns="http://www.w3.org/2000/svg" xmlns:xlink="http://www.w3.org/1999/xlink" x="0px" y="0px"
	 viewBox="-294 386.7 21.2 21.3" style="enable-background:new -294 386.7 21.2 21.3;" xml:space="preserve">
<style type="text/css">
	.st0{fill:#FFFFFF;}
</style>
<g>
	<path d="M-292.94,399.29c0.1-0.18,0.26-0.23,0.46-0.23c6.05,0,12.1,0,18.14,0c0.21,0,0.36,0.05,0.46,0.23c0,1.2,0,2.41,0,3.61
		c-0.1,0.18-0.24,0.24-0.44,0.24c-6.06,0-12.13,0-18.19,0c-0.2,0-0.35-0.06-0.44-0.24C-292.94,401.7-292.94,400.49-292.94,399.29z
		 M-286.53,401.1c0.19-0.13,0.37-0.24,0.54-0.36c0.21-0.14,0.26-0.33,0.14-0.51c-0.12-0.17-0.31-0.19-0.52-0.06
		c-0.14,0.09-0.27,0.18-0.44,0.29c0-0.15,0-0.25,0-0.35c-0.01-0.22-0.15-0.37-0.34-0.37s-0.33,0.15-0.34,0.37
		c-0.01,0.11,0,0.22,0,0.32c-0.03,0-0.04,0-0.05,0c-0.14-0.09-0.27-0.18-0.4-0.26c-0.2-0.13-0.4-0.1-0.51,0.07
		c-0.11,0.17-0.06,0.36,0.13,0.5c0.18,0.12,0.36,0.24,0.56,0.38c-0.19,0.13-0.37,0.25-0.55,0.37c-0.2,0.13-0.25,0.32-0.14,0.49
		c0.11,0.18,0.31,0.21,0.52,0.07c0.14-0.09,0.28-0.18,0.43-0.29c0.05,0.29-0.09,0.69,0.35,0.7c0.46,0.01,0.31-0.41,0.37-0.69
		c0.15,0.1,0.29,0.19,0.43,0.28c0.2,0.13,0.39,0.1,0.51-0.06c0.12-0.17,0.07-0.36-0.14-0.51
		C-286.16,401.34-286.33,401.23-286.53,401.1z M-280.01,401.75c0.06,0.29-0.09,0.7,0.37,0.69c0.44-0.01,0.3-0.41,0.35-0.67
		c0.02,0,0.04,0,0.04,0c0.13,0.08,0.25,0.16,0.37,0.24c0.22,0.14,0.42,0.12,0.54-0.06c0.11-0.17,0.05-0.36-0.16-0.5
		c-0.17-0.12-0.35-0.23-0.53-0.36c0.11-0.07,0.19-0.13,0.28-0.19c0.09-0.06,0.19-0.12,0.28-0.19c0.19-0.14,0.24-0.33,0.13-0.5
		c-0.11-0.17-0.31-0.19-0.51-0.07c-0.14,0.09-0.29,0.19-0.45,0.3c0-0.14,0-0.25,0-0.35c-0.01-0.22-0.15-0.37-0.34-0.37
		c-0.19,0-0.33,0.14-0.34,0.36c-0.01,0.11,0,0.22,0,0.36c-0.18-0.12-0.31-0.22-0.45-0.3c-0.09-0.05-0.21-0.1-0.29-0.07
		c-0.11,0.04-0.21,0.15-0.26,0.25c-0.06,0.14,0.02,0.27,0.14,0.35c0.19,0.13,0.38,0.26,0.59,0.4c-0.2,0.13-0.37,0.25-0.55,0.37
		c-0.21,0.14-0.26,0.33-0.14,0.51c0.12,0.17,0.31,0.19,0.51,0.06C-280.31,401.94-280.17,401.85-280.01,401.75z M-291.51,401.1
		c-0.2,0.13-0.37,0.25-0.55,0.37c-0.21,0.14-0.26,0.33-0.14,0.51c0.12,0.17,0.31,0.2,0.52,0.06c0.14-0.09,0.27-0.18,0.44-0.29
		c0,0.14,0,0.25,0,0.35c0.01,0.23,0.13,0.37,0.33,0.37c0.2,0,0.34-0.14,0.35-0.37c0-0.11,0-0.21,0-0.35c0.17,0.11,0.3,0.2,0.44,0.29
		c0.21,0.14,0.41,0.12,0.52-0.06c0.11-0.17,0.06-0.37-0.14-0.51c-0.17-0.12-0.35-0.23-0.54-0.36c0.2-0.13,0.38-0.25,0.56-0.37
		c0.19-0.13,0.24-0.33,0.13-0.5c-0.11-0.17-0.31-0.2-0.51-0.07c-0.14,0.09-0.29,0.19-0.46,0.3c0-0.15,0-0.27,0-0.38
		c-0.01-0.2-0.15-0.35-0.34-0.34c-0.19,0-0.32,0.14-0.33,0.35c0,0.11,0,0.23,0,0.37c-0.18-0.12-0.32-0.22-0.47-0.31
		c-0.19-0.12-0.38-0.09-0.49,0.07c-0.12,0.17-0.07,0.36,0.12,0.5C-291.89,400.84-291.71,400.96-291.51,401.1z M-282.78,401.1
		c0.11-0.07,0.19-0.13,0.28-0.19c0.09-0.06,0.19-0.12,0.28-0.19c0.19-0.13,0.24-0.33,0.12-0.5c-0.11-0.17-0.31-0.19-0.51-0.07
		c-0.14,0.09-0.28,0.19-0.46,0.3c0-0.15,0-0.26,0-0.37c-0.01-0.22-0.15-0.36-0.35-0.36c-0.19,0.01-0.32,0.15-0.33,0.36
		c0,0.11,0,0.23,0,0.37c-0.1-0.07-0.17-0.11-0.24-0.16c-0.07-0.05-0.14-0.1-0.22-0.14c-0.2-0.13-0.39-0.1-0.51,0.07
		c-0.11,0.16-0.06,0.36,0.13,0.5c0.18,0.12,0.36,0.24,0.56,0.38c-0.19,0.13-0.36,0.24-0.54,0.36c-0.21,0.14-0.26,0.33-0.15,0.5
		c0.12,0.18,0.31,0.21,0.54,0.06c0.14-0.09,0.27-0.18,0.43-0.28c0,0.15,0,0.27,0,0.38c0.01,0.21,0.15,0.34,0.34,0.34
		c0.19,0,0.33-0.14,0.34-0.35c0-0.11,0-0.23,0-0.38c0.17,0.11,0.31,0.21,0.45,0.3c0.21,0.13,0.41,0.11,0.52-0.07
		c0.11-0.17,0.05-0.36-0.14-0.49C-282.41,401.34-282.58,401.23-282.78,401.1z M-275.92,402.46c0.33,0,0.66,0,0.99,0
		c0.23,0,0.38-0.14,0.38-0.34c0-0.2-0.15-0.34-0.39-0.34c-0.65,0-1.3,0-1.95,0c-0.24,0-0.38,0.13-0.38,0.34
		c0,0.21,0.14,0.33,0.38,0.34C-276.56,402.46-276.24,402.46-275.92,402.46z"/>
	<path d="M-277.4,406.89c-4,0-8,0-11.99,0c-0.04-0.02-0.09-0.04-0.13-0.06c-0.41-0.16-0.66-0.46-0.68-0.9
		c-0.02-0.69-0.01-1.38,0-2.07c0-0.01,0.01-0.02,0.02-0.03c4.53,0,9.06,0,13.59,0c0,0.72,0.01,1.43-0.01,2.13
		c-0.01,0.32-0.18,0.58-0.46,0.75C-277.16,406.79-277.29,406.83-277.4,406.89z"/>
	<path d="M-282.99,387.81c0.4,0.09,0.81,0.14,1.19,0.26c2.03,0.64,3.47,2.59,3.5,4.72c0.01,0.6,0,1.2,0,1.82c-0.45,0-0.88,0-1.35,0
		c0-0.07-0.01-0.14-0.01-0.21c-0.01-0.6,0.01-1.2-0.02-1.8c-0.09-1.65-1.46-3.12-3.09-3.37c-2.13-0.32-4.01,1.03-4.33,3.17
		c-0.09,0.62-0.04,1.26-0.05,1.9c0,0.1,0,0.21,0,0.32c-0.46,0-0.89,0-1.33,0c-0.01-0.01-0.02-0.02-0.02-0.03
		c0.02-0.97-0.09-1.95,0.14-2.91c0.5-2.04,2.31-3.62,4.38-3.83c0.05-0.01,0.11-0.02,0.16-0.03
		C-283.54,387.81-283.26,387.81-282.99,387.81z"/>
	<path d="M-290.2,398.35c0-0.06-0.01-0.11-0.01-0.17c0-0.6,0-1.2,0-1.81c0-0.64,0.44-1.07,1.08-1.08c3.82,0,7.65,0,11.47,0
		c0.64,0,1.07,0.44,1.08,1.08c0,0.65,0,1.3,0,1.97C-281.13,398.35-285.66,398.35-290.2,398.35z M-288.85,396.67
		c0.23,0,0.44,0.01,0.65,0c0.22-0.01,0.36-0.14,0.37-0.34c0-0.2-0.13-0.34-0.36-0.34c-0.32-0.01-0.65-0.01-0.97,0
		c-0.24,0.01-0.37,0.13-0.37,0.37c-0.01,0.32-0.01,0.63,0,0.95c0,0.24,0.14,0.38,0.35,0.38c0.2,0,0.33-0.15,0.34-0.39
		C-288.84,397.1-288.85,396.9-288.85,396.67z"/>
	<path class="st0" d="M-288.85,396.67c0,0.23,0,0.43,0,0.63c-0.01,0.24-0.14,0.38-0.34,0.39c-0.2,0-0.34-0.14-0.35-0.38
		c-0.01-0.32-0.01-0.63,0-0.95c0.01-0.24,0.13-0.37,0.37-0.37c0.32-0.01,0.65-0.01,0.97,0c0.23,0.01,0.36,0.15,0.36,0.34
		c0,0.2-0.14,0.33-0.37,0.34C-288.41,396.68-288.62,396.67-288.85,396.67z"/>
</g>
</svg>
