<?xml version="1.0" encoding="utf-8"?>
<!-- Generator: Adobe Illustrator 23.0.1, SVG Export Plug-In . SVG Version: 6.00 Build 0)  -->
<svg version="1.1" id="Layer_1" xmlns="http://www.w3.org/2000/svg" xmlns:xlink="http://www.w3.org/1999/xlink" x="0px" y="0px"
	 viewBox="-294 386.7 21.2 21.3" style="enable-background:new -294 386.7 21.2 21.3;" xml:space="preserve">
<g>
	<path d="M-277.49,407.05c-3.94,0-7.89,0-11.83,0c-0.02-0.01-0.03-0.02-0.05-0.02c-0.93-0.22-1.43-0.84-1.43-1.8
		c0-4.86,0.01-9.72,0.02-14.58c0-0.18,0-0.36,0.04-0.53c0.33-1.26,1.37-1.46,2.42-1.31c0,0.21-0.01,0.42,0,0.62
		c0.01,0.15,0.01,0.31,0.05,0.45c0.17,0.7,0.76,1.17,1.51,1.17c2.22,0,4.44,0,6.65,0c1.01,0,1.64-0.63,1.64-1.65
		c0-0.21,0-0.41,0-0.63c0.27,0,0.51,0,0.74,0c0.97,0.01,1.72,0.75,1.72,1.72c0,4.92-0.01,9.84-0.01,14.77
		c0,0.92-0.51,1.54-1.41,1.76C-277.45,407.03-277.47,407.05-277.49,407.05z M-281.18,402.05c-0.65,0-1.3,0-1.95,0
		c-0.38,0-0.64,0.23-0.65,0.56c0,0.34,0.26,0.57,0.64,0.57c1.3,0,2.6,0,3.9,0c0.39,0,0.64-0.23,0.65-0.57
		c0-0.34-0.26-0.57-0.64-0.57C-279.88,402.05-280.53,402.05-281.18,402.05z M-281.18,395.61c0.64,0,1.29,0,1.93,0
		c0.38,0,0.64-0.23,0.65-0.57c0-0.34-0.26-0.57-0.64-0.57c-1.29,0-2.59,0-3.88,0c-0.38,0-0.65,0.23-0.65,0.57
		c0,0.34,0.26,0.57,0.64,0.57C-282.48,395.61-281.83,395.61-281.18,395.61z M-281.18,399.4c0.64,0,1.29,0,1.93,0
		c0.38,0,0.64-0.23,0.64-0.57c0-0.34-0.26-0.57-0.64-0.57c-1.29,0-2.59,0-3.88,0c-0.38,0-0.64,0.23-0.65,0.57
		c0,0.34,0.26,0.57,0.64,0.57C-282.48,399.4-281.83,399.4-281.18,399.4z M-286.95,398.9c-0.11-0.12-0.19-0.23-0.29-0.32
		c-0.24-0.22-0.58-0.22-0.8-0.01c-0.22,0.22-0.23,0.56-0.01,0.8c0.23,0.24,0.47,0.48,0.71,0.71c0.25,0.24,0.57,0.24,0.81,0
		c0.57-0.56,1.14-1.13,1.7-1.7c0.14-0.14,0.2-0.32,0.16-0.52c-0.05-0.21-0.18-0.36-0.39-0.43c-0.22-0.06-0.41-0.02-0.57,0.15
		C-286.06,398.01-286.49,398.43-286.95,398.9z M-286.95,402.69c-0.11-0.12-0.2-0.23-0.3-0.32c-0.24-0.22-0.58-0.22-0.8,0
		c-0.22,0.22-0.23,0.56,0,0.8c0.23,0.24,0.47,0.48,0.71,0.71c0.25,0.23,0.57,0.23,0.81-0.01c0.57-0.56,1.14-1.13,1.7-1.7
		c0.14-0.14,0.2-0.31,0.16-0.5c-0.04-0.21-0.17-0.37-0.38-0.44c-0.22-0.07-0.42-0.02-0.59,0.15
		C-286.06,401.8-286.49,402.23-286.95,402.69z M-286.96,394.82c-0.1-0.12-0.19-0.23-0.29-0.32c-0.24-0.23-0.58-0.22-0.8,0
		c-0.22,0.22-0.23,0.56,0,0.8c0.23,0.24,0.47,0.48,0.71,0.71c0.25,0.24,0.57,0.24,0.81,0c0.57-0.56,1.14-1.13,1.7-1.7
		c0.14-0.14,0.2-0.32,0.16-0.52c-0.05-0.21-0.18-0.36-0.39-0.42c-0.23-0.07-0.42-0.01-0.59,0.16
		C-286.07,393.93-286.49,394.36-286.96,394.82z"/>
	<path d="M-283.38,389.92c-1.1,0-2.21,0-3.31,0c-0.35,0-0.48-0.13-0.49-0.48c0-0.44,0-0.88,0-1.33c0-0.33,0.14-0.47,0.47-0.47
		c2.21,0,4.42,0,6.63,0c0.34,0,0.47,0.13,0.47,0.47c0,0.45,0,0.9,0,1.34c0,0.33-0.13,0.46-0.46,0.46
		C-281.17,389.92-282.27,389.92-283.38,389.92z"/>
</g>
</svg>
