<?xml version="1.0" encoding="utf-8"?>
<!-- Generator: Adobe Illustrator 23.0.1, SVG Export Plug-In . SVG Version: 6.00 Build 0)  -->
<svg version="1.1" id="Layer_1" xmlns="http://www.w3.org/2000/svg" xmlns:xlink="http://www.w3.org/1999/xlink" x="0px" y="0px"
	 viewBox="-294 386.7 21.2 21.3" style="enable-background:new -294 386.7 21.2 21.3;" xml:space="preserve">
<g>
	<path d="M-273.89,402.4c-0.15,0.32-0.41,0.42-0.75,0.41c-0.66-0.02-1.31,0-1.97-0.01c-0.17,0-0.29,0.04-0.42,0.15
		c-1.18,0.99-2.36,1.98-3.54,2.97c-0.75,0.63-1.81,0.34-2.07-0.57c-0.11-0.39-0.03-0.74,0.16-1.1c-0.2,0.17-0.41,0.34-0.61,0.51
		c-0.58,0.47-1.39,0.37-1.82-0.22c-0.31-0.42-0.32-0.99-0.03-1.43c0.03-0.04,0.06-0.09,0.1-0.14c-0.76,0.27-1.28,0.17-1.66-0.33
		c-0.35-0.46-0.34-1.02,0.06-1.6c-0.07,0.03-0.12,0.05-0.16,0.07c-0.57,0.25-1.23,0.05-1.57-0.47c-0.33-0.52-0.25-1.19,0.22-1.6
		c0.59-0.52,1.2-1.02,1.81-1.52c0.05-0.04,0.13-0.06,0.2-0.06c1.15,0,2.29,0,3.44,0c0.08,0,0.18,0.05,0.24,0.1
		c0.43,0.42,0.86,0.86,1.29,1.28c0.68,0.67,1.5,0.88,2.41,0.6c0.89-0.28,1.43-0.9,1.62-1.82c0.14-0.67-0.02-1.29-0.43-1.88
		c0.09,0,0.15,0,0.21,0c0.85,0,1.71,0.01,2.56-0.01c0.34-0.01,0.59,0.1,0.73,0.42C-273.89,398.24-273.89,400.32-273.89,402.4z"/>
	<path d="M-292.91,395.01c0.14-0.31,0.39-0.42,0.73-0.42c1.36,0.01,2.71,0,4.07,0.01c0.12,0,0.21-0.03,0.29-0.12
		c0.66-0.69,1.47-1.01,2.43-1c1.06,0.01,2.13,0.01,3.19,0c0.64,0,1.19,0.21,1.64,0.66c0.72,0.71,1.45,1.43,2.15,2.15
		c0.7,0.72,0.38,1.89-0.58,2.11c-0.47,0.11-0.89-0.02-1.24-0.37c-0.48-0.48-0.97-0.96-1.44-1.45c-0.17-0.18-0.36-0.25-0.61-0.25
		c-1.31,0.01-2.62,0-3.94,0.01c-0.09,0-0.21,0.04-0.28,0.1c-0.66,0.54-1.31,1.09-1.97,1.64c-1.41,1.18-1.07,3.35,0.63,4.05
		c0.05,0.02,0.11,0.06,0.13,0.11c0.1,0.29,0.2,0.58,0.29,0.87c-0.37,0.04-0.72,0.02-1.01-0.31c-0.32-0.37-0.69-0.71-1.05-1.05
		c-0.06-0.06-0.17-0.1-0.26-0.1c-0.81-0.01-1.62-0.02-2.43,0c-0.34,0.01-0.6-0.09-0.75-0.41
		C-292.91,399.17-292.91,397.09-292.91,395.01z"/>
	<path d="M-287.41,389.73c0.07,0.04,0.22,0.08,0.32,0.18c0.49,0.48,0.98,0.96,1.46,1.45c0.24,0.24,0.24,0.57,0.02,0.8
		c-0.22,0.23-0.57,0.23-0.81-0.01c-0.49-0.48-0.97-0.97-1.45-1.46c-0.18-0.18-0.22-0.41-0.12-0.63
		C-287.89,389.85-287.72,389.74-287.41,389.73z"/>
	<path d="M-278.72,390.3c-0.07,0.13-0.12,0.28-0.22,0.39c-0.48,0.49-0.96,0.98-1.45,1.46c-0.24,0.24-0.57,0.24-0.8,0.02
		c-0.23-0.22-0.22-0.57,0.02-0.81c0.48-0.49,0.97-0.97,1.45-1.46c0.17-0.17,0.39-0.21,0.61-0.13
		C-278.89,389.85-278.76,390.06-278.72,390.3z"/>
	<path d="M-282.84,389.92c0,0.29,0,0.58,0,0.87c0,0.35-0.23,0.59-0.55,0.59c-0.32,0-0.56-0.24-0.56-0.59c0-0.59,0-1.19,0-1.78
		c0-0.34,0.24-0.58,0.56-0.58c0.31,0,0.55,0.24,0.55,0.58C-282.84,389.31-282.84,389.61-282.84,389.92z"/>
</g>
</svg>
