<?xml version="1.0" encoding="utf-8"?>
<!-- Generator: Adobe Illustrator 23.0.1, SVG Export Plug-In . SVG Version: 6.00 Build 0)  -->
<svg version="1.1" id="Layer_1" xmlns="http://www.w3.org/2000/svg" xmlns:xlink="http://www.w3.org/1999/xlink" x="0px" y="0px"
	 viewBox="-294 386.7 21.2 21.3" style="enable-background:new -294 386.7 21.2 21.3;" xml:space="preserve">
<g>
	<path d="M-292.93,401.3c0.04-0.19,0.07-0.37,0.12-0.56c0.28-1.1,0.9-1.96,1.86-2.57c1.18-0.75,2.45-1.29,3.81-1.6
		c0.1-0.02,0.24,0,0.33,0.05c1.69,0.96,3.39,0.95,5.1,0.04c0.21-0.11,0.4-0.15,0.62-0.08c0.49,0.16,0.98,0.3,1.47,0.47
		c-2.18,0.62-3.61,1.99-4.05,4.21c-0.45,2.23,0.39,4.03,2.19,5.46c-0.49,0.04-0.93,0.07-1.37,0.11c-0.14,0.01-0.28,0.03-0.42,0.04
		c-0.6,0-1.21,0-1.81,0c-0.08-0.01-0.15-0.03-0.23-0.04c-2.26-0.11-4.45-0.55-6.59-1.27c-0.51-0.17-0.88-0.44-1.03-0.97
		C-292.93,403.49-292.93,402.4-292.93,401.3z"/>
	<path d="M-283.74,387.83c0.34,0.08,0.7,0.14,1.03,0.25c1.75,0.6,2.92,2.27,2.92,4.13c0,1.81-1.19,3.46-2.93,4.08
		c-2.96,1.05-5.96-1.18-5.82-4.32c0.09-2.08,1.73-3.85,3.79-4.1c0.05-0.01,0.1-0.03,0.15-0.04
		C-284.31,387.83-284.03,387.83-283.74,387.83z"/>
	<path d="M-278.84,406.81c-0.47-0.03-0.94-0.14-1.41-0.33c-1.78-0.71-2.96-2.67-2.77-4.56c0.21-2.05,1.69-3.72,3.64-4.09
		c2.38-0.45,4.9,1.17,5.41,3.55c0.54,2.49-1.36,5-3.82,5.39C-278.13,406.83-278.48,406.84-278.84,406.81z M-277.94,402.28
		c0.1-0.08,0.18-0.13,0.25-0.2c0.44-0.44,0.88-0.87,1.31-1.31c0.23-0.23,0.25-0.45,0.07-0.62c-0.17-0.17-0.39-0.14-0.61,0.07
		c-0.07,0.07-0.15,0.15-0.22,0.22c-0.44,0.44-0.87,0.87-1.32,1.32c-0.07-0.07-0.13-0.12-0.19-0.17c-0.44-0.44-0.89-0.89-1.33-1.33
		c-0.25-0.25-0.46-0.28-0.64-0.11c-0.19,0.18-0.15,0.4,0.11,0.65c0.34,0.34,0.67,0.67,1.01,1.01c0.16,0.16,0.33,0.32,0.54,0.52
		c-0.11,0.08-0.19,0.12-0.25,0.18c-0.46,0.46-0.92,0.91-1.38,1.38c-0.21,0.22-0.18,0.53,0.07,0.64c0.19,0.09,0.35,0.03,0.49-0.12
		c0.46-0.47,0.93-0.93,1.4-1.4c0.05-0.05,0.11-0.1,0.18-0.17c0.42,0.42,0.81,0.82,1.21,1.22c0.13,0.14,0.26,0.28,0.41,0.4
		c0.16,0.14,0.38,0.13,0.52,0c0.15-0.14,0.16-0.36,0.01-0.54c-0.05-0.06-0.11-0.11-0.17-0.17
		C-276.94,403.27-277.42,402.8-277.94,402.28z"/>
</g>
</svg>
