<?xml version="1.0" encoding="utf-8"?>
<!-- Generator: Adobe Illustrator 21.0.0, SVG Export Plug-In . SVG Version: 6.00 Build 0)  -->
<svg version="1.1" id="Layer_1" xmlns="http://www.w3.org/2000/svg" xmlns:xlink="http://www.w3.org/1999/xlink" x="0px" y="0px"
	 viewBox="0 0 200 200" style="enable-background:new 0 0 200 200;" xml:space="preserve">
<path d="M9.6,134.4c0-39.7,0-79.4,0-119.1c0.9-1.8,2.2-3.1,3.9-3.9c27.3,0,54.7,0,82,0c0,41,0,82,0,123.2c-0.9,0-1.4,0-2,0
	c-27.4,0-54.8,0-82.2,0C10.8,134.6,10.2,134.5,9.6,134.4z"/>
<path d="M192.2,15.3c0,26.6,0,53.3,0,79.9c-0.6,0.1-1.2,0.1-1.8,0.1c-27.4,0-54.8,0-82.2,0c-0.6,0-1.3-0.1-2-0.1c0-28.1,0-56,0-83.9
	c27.3,0,54.7,0,82,0C190,12.2,191.3,13.6,192.2,15.3z"/>
<path d="M9.6,162.3c0-5.7,0-11.4,0-17.1c0.7,0.1,1.4,0.1,2.1,0.1c59.5,0,118.9,0,178.4,0c0.7,0,1.4-0.1,2.1-0.1c0,5.7,0,11.4,0,17.1
	c-1.3,3.1-3.6,4.1-6.9,4.1c-18.6-0.1-37.3,0-55.9,0c-0.7,0-1.4,0-2.2,0c0,5.7,0,11.3,0,17c2.9,0,5.7-0.1,8.6,0
	c3.4,0.1,5.9,3,5.3,6.2c-0.4,2.4-2,3.6-4.1,4.5c-24,0-48,0-72,0c-3.3-1.6-4.7-3.7-4-6.4c0.7-2.9,2.7-4.3,6.5-4.3c2.4,0,4.8,0,7.3,0
	c0-5.7,0-11.3,0-17c-0.8,0-1.5,0-2.2,0c-18.6,0-37.3-0.1-55.9,0C13.2,166.3,10.9,165.3,9.6,162.3z"/>
<path d="M192.2,134.4c-0.6,0.1-1.2,0.1-1.8,0.1c-27.4,0-54.8,0-82.1,0c-0.6,0-1.2,0-1.9,0c0-9.5,0-18.9,0-28.5c0.8,0,1.5,0,2.3,0
	c27.1,0,54.2,0,81.3,0c0.8,0,1.5-0.1,2.3-0.1C192.2,115.4,192.2,124.9,192.2,134.4z M149.3,115c-3.1,0.1-5.5,2.5-5.5,5.4
	c0.1,2.8,2.5,5.3,5.2,5.3c3.1,0,5.5-2.4,5.4-5.4C154.5,117.4,152,114.9,149.3,115z"/>
</svg>
