<?xml version="1.0" encoding="utf-8"?>
<!-- Generator: Adobe Illustrator 23.0.1, SVG Export Plug-In . SVG Version: 6.00 Build 0)  -->
<svg version="1.1" id="Layer_1" xmlns="http://www.w3.org/2000/svg" xmlns:xlink="http://www.w3.org/1999/xlink" x="0px" y="0px"
	 viewBox="-294 386.7 21.2 21.3" style="enable-background:new -294 386.7 21.2 21.3;" xml:space="preserve">
<g>
	<path d="M-292.91,400.65c0-4.13,0-8.27,0-12.4c0.09-0.18,0.22-0.32,0.41-0.41c2.85,0,5.69,0,8.54,0c0,4.27,0,8.54,0,12.83
		c-0.09,0-0.15,0-0.21,0c-2.85,0-5.7,0-8.55,0C-292.78,400.67-292.85,400.66-292.91,400.65z"/>
	<path d="M-273.89,388.25c0,2.77,0,5.55,0,8.32c-0.06,0.01-0.12,0.02-0.18,0.02c-2.85,0-5.7,0-8.55,0c-0.07,0-0.13-0.01-0.21-0.01
		c0-2.92,0-5.83,0-8.73c2.85,0,5.69,0,8.54,0C-274.12,387.93-273.98,388.07-273.89,388.25z"/>
	<path d="M-292.91,403.55c0-0.59,0-1.19,0-1.78c0.07,0.01,0.15,0.02,0.22,0.02c6.19,0,12.38,0,18.57,0c0.07,0,0.15-0.01,0.22-0.02
		c0,0.59,0,1.19,0,1.78c-0.13,0.32-0.38,0.42-0.72,0.42c-1.94-0.01-3.88-0.01-5.82-0.01c-0.07,0-0.14,0-0.23,0c0,0.6,0,1.18,0,1.77
		c0.3,0,0.6-0.01,0.89,0c0.35,0.01,0.61,0.32,0.55,0.64c-0.04,0.25-0.21,0.38-0.43,0.47c-2.5,0-5,0-7.5,0
		c-0.35-0.17-0.49-0.39-0.42-0.67c0.07-0.3,0.28-0.44,0.67-0.44c0.25,0,0.5,0,0.76,0c0-0.6,0-1.17,0-1.77c-0.08,0-0.16,0-0.23,0
		c-1.94,0-3.88-0.01-5.82,0.01C-292.53,403.98-292.77,403.87-292.91,403.55z"/>
	<path d="M-273.89,400.65c-0.06,0.01-0.12,0.02-0.18,0.02c-2.85,0-5.7,0-8.55,0c-0.06,0-0.12,0-0.2,0c0-0.99,0-1.97,0-2.97
		c0.08,0,0.16,0,0.24,0c2.82,0,5.64,0,8.46,0c0.08,0,0.16-0.01,0.24-0.02C-273.89,398.67-273.89,399.66-273.89,400.65z
		 M-278.36,398.63c-0.32,0.01-0.57,0.26-0.57,0.56c0.01,0.3,0.26,0.55,0.54,0.55c0.32,0,0.57-0.26,0.57-0.56
		C-277.82,398.88-278.08,398.63-278.36,398.63z"/>
</g>
</svg>
