<?xml version="1.0" encoding="utf-8"?>
<!-- Generator: Adobe Illustrator 23.0.1, SVG Export Plug-In . SVG Version: 6.00 Build 0)  -->
<svg version="1.1" id="Layer_1" xmlns="http://www.w3.org/2000/svg" xmlns:xlink="http://www.w3.org/1999/xlink" x="0px" y="0px"
	 viewBox="-294 386.7 21.2 21.3" style="enable-background:new -294 386.7 21.2 21.3;" xml:space="preserve">
<g>
	<path d="M-282.72,394.87c0,0.3,0,0.61,0,0.92c0,2.72,0,5.45,0,8.17c0,0.14,0.02,0.29-0.02,0.42c-0.09,0.35-0.3,0.57-0.69,0.56
		c-0.37-0.01-0.56-0.23-0.64-0.57c-0.03-0.12-0.01-0.25-0.01-0.38c0-2.89,0-5.79,0-8.68c0-0.15,0-0.31,0-0.45
		c-1.45-0.6-2.12-1.72-1.86-3.07c0.22-1.17,1.3-2.04,2.53-2.05c1.22-0.01,2.32,0.84,2.55,2.02
		C-280.67,392.82-280.93,394.18-282.72,394.87z M-283.4,393.61c0.66,0,1.25-0.57,1.27-1.24c0.02-0.67-0.59-1.29-1.26-1.29
		c-0.66,0-1.25,0.58-1.27,1.24C-284.68,392.99-284.08,393.6-283.4,393.61z"/>
	<path d="M-275.81,393.67c0,1.03,0.01,2.07,0,3.1c0,0.26,0.05,0.39,0.32,0.5c1.05,0.43,1.61,1.26,1.62,2.37
		c0.01,1.12-0.55,1.94-1.59,2.39c-0.27,0.11-0.36,0.24-0.35,0.53c0.02,0.55,0.01,1.11,0,1.66c-0.01,0.46-0.25,0.72-0.65,0.72
		c-0.41,0-0.65-0.25-0.66-0.71c-0.01-0.57-0.01-1.13,0-1.7c0.01-0.24-0.06-0.37-0.3-0.47c-1.06-0.44-1.63-1.26-1.62-2.4
		c0.01-1.13,0.57-1.93,1.61-2.37c0.27-0.11,0.31-0.26,0.31-0.51c-0.01-2.07-0.01-4.14,0-6.21c0-0.49,0.18-0.74,0.53-0.79
		c0.46-0.07,0.78,0.21,0.78,0.71C-275.81,391.55-275.81,392.61-275.81,393.67z M-275.23,399.64c-0.01-0.68-0.56-1.24-1.24-1.24
		c-0.7,0-1.25,0.57-1.24,1.29c0.01,0.69,0.56,1.24,1.24,1.24C-275.77,400.93-275.22,400.36-275.23,399.64z"/>
	<path d="M-290.99,402.2c0-0.67-0.01-1.33,0-2c0-0.23-0.05-0.36-0.28-0.45c-1.08-0.43-1.65-1.25-1.66-2.39
		c-0.01-1.15,0.57-1.99,1.66-2.42c0.24-0.09,0.27-0.24,0.27-0.45c-0.01-1.35,0-2.69,0-4.04c0-0.34,0.15-0.58,0.47-0.67
		c0.31-0.08,0.61-0.01,0.76,0.31c0.07,0.16,0.09,0.35,0.09,0.53c0.01,1.26,0.01,2.52,0,3.78c0,0.28,0.05,0.44,0.35,0.57
		c1.02,0.44,1.57,1.24,1.58,2.35c0.01,1.13-0.55,1.94-1.58,2.39c-0.27,0.12-0.35,0.25-0.34,0.53c0.01,1.33,0,2.66,0,4
		c0,0.34-0.15,0.58-0.48,0.67c-0.3,0.08-0.58,0-0.73-0.28c-0.07-0.13-0.1-0.29-0.1-0.44C-290.99,403.53-290.99,402.87-290.99,402.2z
		 M-289.08,397.34c-0.01-0.69-0.57-1.24-1.24-1.24c-0.69,0-1.25,0.58-1.25,1.29c0.01,0.68,0.57,1.24,1.24,1.24
		C-289.63,398.62-289.07,398.04-289.08,397.34z"/>
</g>
</svg>
