<?xml version="1.0" encoding="utf-8"?>
<!-- Generator: Adobe Illustrator 23.0.1, SVG Export Plug-In . SVG Version: 6.00 Build 0)  -->
<svg version="1.1" id="Layer_1" xmlns="http://www.w3.org/2000/svg" xmlns:xlink="http://www.w3.org/1999/xlink" x="0px" y="0px"
	 viewBox="-294 386.7 21.2 21.3" style="enable-background:new -294 386.7 21.2 21.3;" xml:space="preserve">
<g>
	<path d="M-292.94,394.08c0.06-0.31,0.1-0.62,0.18-0.93c0.65-2.53,2.98-4.26,5.58-4.13c1.41,0.07,2.62,0.61,3.63,1.59
		c0.04,0.04,0.09,0.08,0.12,0.11c0.36-0.28,0.69-0.58,1.06-0.83c3.29-2.18,7.85-0.13,8.43,3.77c0.21,1.41-0.13,2.71-0.78,3.94
		c-0.73,1.39-1.72,2.57-2.83,3.67c-1.62,1.61-3.43,2.99-5.36,4.22c-0.34,0.22-0.63,0.23-0.98,0.01c-2.27-1.44-4.38-3.08-6.19-5.07
		c-0.97-1.06-1.81-2.21-2.36-3.54c-0.24-0.59-0.42-1.19-0.48-1.83c0-0.05-0.02-0.09-0.03-0.14
		C-292.94,394.66-292.94,394.37-292.94,394.08z M-275.05,394.41c-0.02-0.14-0.04-0.41-0.08-0.67c-0.38-2.26-2.66-3.87-4.91-3.48
		c-1.18,0.2-2.13,0.78-2.84,1.75c-0.13,0.18-0.3,0.29-0.53,0.29c-0.25,0-0.4-0.15-0.54-0.34c-1.42-1.91-4.11-2.31-6.02-0.91
		c-1.57,1.16-2.16,3.12-1.49,5.05c0.42,1.22,1.15,2.25,1.98,3.21c1.73,1.99,3.79,3.59,5.98,5.03c0.09,0.06,0.15,0.04,0.23-0.01
		c1.54-1.01,3.01-2.12,4.37-3.38c1.14-1.06,2.18-2.19,2.97-3.54C-275.42,396.52-275.06,395.58-275.05,394.41z"/>
</g>
</svg>
