<?xml version="1.0" encoding="utf-8"?>
<!-- Generator: Adobe Illustrator 23.0.1, SVG Export Plug-In . SVG Version: 6.00 Build 0)  -->
<svg version="1.1" id="Layer_1" xmlns="http://www.w3.org/2000/svg" xmlns:xlink="http://www.w3.org/1999/xlink" x="0px" y="0px"
	 viewBox="-294 386.7 21.2 21.3" style="enable-background:new -294 386.7 21.2 21.3;" xml:space="preserve">
<g>
	<path d="M-292.86,395.03c0-0.28,0-0.57,0-0.85c0.01-0.07,0.03-0.13,0.03-0.2c0.1-1.02,0.42-1.96,1.01-2.82
		c1.17-1.73,3.33-2.58,5.37-2.1c1.17,0.28,2.08,0.95,2.83,1.86c0.07,0.09,0.14,0.18,0.21,0.27c0.03-0.02,0.04-0.03,0.05-0.04
		c0.06-0.08,0.12-0.16,0.18-0.23c1.29-1.55,2.92-2.28,4.93-1.89c1.95,0.38,3.24,1.57,3.91,3.41c0.74,2.03,0.42,3.96-0.74,5.76
		c-0.65,1-1.44,1.88-2.32,2.67c-1.73,1.54-3.49,3.06-5.24,4.58c-0.5,0.43-1.05,0.41-1.57-0.03c-1.35-1.16-2.7-2.32-4.04-3.49
		c-1.13-0.98-2.22-2-3.12-3.21c-0.58-0.79-1.05-1.63-1.29-2.59C-292.75,395.77-292.79,395.4-292.86,395.03z"/>
</g>
</svg>
