<?xml version="1.0" encoding="utf-8"?>
<!-- Generator: Adobe Illustrator 23.0.1, SVG Export Plug-In . SVG Version: 6.00 Build 0)  -->
<svg version="1.1" id="Layer_1" xmlns="http://www.w3.org/2000/svg" xmlns:xlink="http://www.w3.org/1999/xlink" x="0px" y="0px"
	 viewBox="-294 386.7 21.2 21.3" style="enable-background:new -294 386.7 21.2 21.3;" xml:space="preserve">
<g>
	<path d="M-288,406.84c-0.32-0.15-0.41-0.4-0.41-0.75c0.01-2.65,0.01-5.3,0.01-7.95c0-0.07,0-0.15,0-0.18
		c0.51-0.09,1-0.18,1.49-0.28c0.19-0.04,0.38-0.11,0.56-0.19c0.24-0.12,0.48-0.14,0.73-0.14c2.22,0.01,4.44,0,6.66,0
		c0.45,0,0.73-0.39,0.57-0.77c-0.11-0.25-0.32-0.34-0.58-0.34c-1.74,0-3.47,0-5.21,0c-0.07,0-0.15,0-0.26,0
		c0.77-0.81,1.28-1.71,1.5-2.77c1.91,0,3.8,0,5.71,0c0,0.08,0,0.15,0,0.23c0,4.13,0,8.27,0.01,12.4c0,0.34-0.09,0.6-0.41,0.75
		C-281.1,406.84-284.55,406.84-288,406.84z M-282.25,398.46c-1.11,0-2.21,0-3.32,0c-0.26,0-0.46,0.1-0.57,0.34
		c-0.17,0.38,0.11,0.77,0.56,0.78c1.24,0,2.48,0,3.72,0c0.96,0,1.93,0,2.89,0c0.24,0,0.43-0.09,0.54-0.31
		c0.19-0.38-0.08-0.8-0.53-0.8C-280.05,398.46-281.15,398.46-282.25,398.46z M-282.27,400.69c-1.1,0-2.2,0-3.3,0
		c-0.26,0-0.46,0.1-0.57,0.34c-0.17,0.38,0.11,0.78,0.56,0.78c1.2,0,2.41,0,3.61,0c1,0,2,0,3,0c0.24,0,0.43-0.09,0.54-0.31
		c0.19-0.38-0.08-0.8-0.53-0.8C-280.06,400.69-281.16,400.69-282.27,400.69z M-282.25,402.91c-1.11,0-2.21,0-3.32,0
		c-0.26,0-0.46,0.1-0.57,0.34c-0.17,0.37,0.11,0.78,0.54,0.78c1.1,0,2.2,0,3.3,0c1.11,0,2.22,0,3.33,0c0.25,0,0.45-0.1,0.55-0.33
		c0.18-0.38-0.1-0.78-0.54-0.78C-280.05,402.91-281.15,402.91-282.25,402.91z"/>
	<path d="M-288,387.86c0.32,0.07,0.64,0.12,0.95,0.22c1.93,0.62,3.2,2.5,3.09,4.52c-0.12,2.02-1.58,3.7-3.57,4.11
		c-0.84,0.17-1.66,0.1-2.46-0.21c-0.13-0.05-0.24-0.05-0.37,0c-0.2,0.09-0.4,0.16-0.6,0.24c-0.21,0.09-0.41,0.07-0.59-0.08
		c-0.18-0.15-0.25-0.35-0.18-0.57c0.13-0.44,0.05-0.78-0.27-1.15c-0.51-0.59-0.77-1.31-0.87-2.09c-0.01-0.05-0.02-0.09-0.03-0.14
		c0-0.26,0-0.52,0-0.78c0.01-0.04,0.03-0.08,0.03-0.12c0.22-1.87,1.65-3.44,3.49-3.85c0.19-0.04,0.37-0.07,0.56-0.11
		C-288.54,387.86-288.27,387.86-288,387.86z M-290.07,392.35c0-0.3-0.25-0.55-0.55-0.56c-0.3,0-0.56,0.24-0.56,0.54
		c-0.01,0.31,0.25,0.57,0.56,0.57C-290.33,392.9-290.08,392.65-290.07,392.35z M-287.85,392.35c0-0.3-0.25-0.55-0.55-0.56
		c-0.3,0-0.56,0.24-0.56,0.54c-0.01,0.31,0.25,0.57,0.56,0.57C-288.1,392.9-287.85,392.65-287.85,392.35z M-285.63,392.35
		c0-0.3-0.24-0.56-0.54-0.56c-0.3-0.01-0.56,0.24-0.57,0.54c-0.01,0.31,0.25,0.57,0.55,0.57
		C-285.88,392.9-285.63,392.65-285.63,392.35z"/>
	<path d="M-273.91,405.32c-0.15,0.32-0.4,0.43-0.75,0.41c-0.48-0.02-0.96-0.01-1.47-0.01c0-4.46,0-8.91,0-13.37
		c-0.06-0.01-0.11-0.01-0.16-0.02c-0.57-0.09-0.97-0.55-0.97-1.11c0-0.54,0.41-1.03,0.98-1.08c0.35-0.04,0.72-0.04,1.07,0.04
		c0.67,0.14,1.08,0.59,1.25,1.25c0.01,0.05,0.03,0.09,0.04,0.14C-273.91,396.15-273.91,400.74-273.91,405.32z"/>
	<path d="M-282.84,392.34c-0.01-0.77-0.16-1.49-0.47-2.2c1.76,0,3.49,0,5.25,0c-0.18,0.35-0.29,0.7-0.29,1.09
		c0,0.39,0.11,0.75,0.29,1.11C-279.67,392.34-281.24,392.34-282.84,392.34z"/>
</g>
</svg>
