<?xml version="1.0" encoding="utf-8"?>
<!-- Generator: Adobe Illustrator 23.0.1, SVG Export Plug-In . SVG Version: 6.00 Build 0)  -->
<svg version="1.1" id="Layer_1" xmlns="http://www.w3.org/2000/svg" xmlns:xlink="http://www.w3.org/1999/xlink" x="0px" y="0px"
	 viewBox="-294 386.7 21.2 21.3" style="enable-background:new -294 386.7 21.2 21.3;" xml:space="preserve">
<g>
	<path d="M-285.78,387.81c1.59,0,3.18,0,4.77,0c0.42,0.18,0.56,0.5,0.56,0.95c-0.01,5.73-0.01,11.45,0,17.18
		c0,0.45-0.14,0.77-0.56,0.95c-1.59,0-3.18,0-4.77,0c-0.42-0.18-0.56-0.5-0.56-0.94c0.01-5.73,0.01-11.46,0-17.18
		C-286.34,388.31-286.2,387.99-285.78,387.81z"/>
	<path d="M-274.41,406.89c-1.59,0-3.18,0-4.77,0c-0.42-0.18-0.56-0.5-0.56-0.95c0.01-4.29,0.01-8.59,0.01-12.88
		c0-0.57,0.28-0.85,0.84-0.85c1.36,0,2.72,0.01,4.08-0.01c0.45-0.01,0.77,0.14,0.95,0.56c0,4.52,0,9.05,0,13.57
		C-273.97,406.59-274.16,406.78-274.41,406.89z"/>
	<path d="M-292.94,406.34c0-3.55,0-7.09,0-10.64c0.18-0.42,0.49-0.56,0.95-0.56c1.34,0.02,2.69,0.01,4.03,0.01
		c0.62,0,0.89,0.27,0.89,0.89c0,3.3-0.01,6.6,0.01,9.9c0,0.45-0.14,0.77-0.56,0.95c-1.59,0-3.18,0-4.77,0
		C-292.64,406.78-292.83,406.6-292.94,406.34z"/>
</g>
</svg>
