<?xml version="1.0" encoding="utf-8"?>
<!-- Generator: Adobe Illustrator 23.0.1, SVG Export Plug-In . SVG Version: 6.00 Build 0)  -->
<svg version="1.1" id="Layer_1" xmlns="http://www.w3.org/2000/svg" xmlns:xlink="http://www.w3.org/1999/xlink" x="0px" y="0px"
	 viewBox="-294 386.7 21.2 21.3" style="enable-background:new -294 386.7 21.2 21.3;" xml:space="preserve">
<g>
	<path d="M-277.03,407.05c-4.25,0-8.49,0-12.74,0c-0.01-0.01-0.02-0.02-0.03-0.02c-0.72-0.22-1.04-0.64-1.04-1.38
		c0-5.53,0-11.06,0-16.6c0-0.05,0-0.1,0-0.15c0.02-0.55,0.37-1.02,0.89-1.19c0.06-0.02,0.12-0.04,0.17-0.06c2.92,0,5.84,0,8.76,0
		c0.16,0.12,0.2,0.28,0.2,0.47c-0.01,0.8-0.01,1.6,0,2.41c0.01,1.14,0.85,1.97,1.99,1.97c0.8,0,1.59,0,2.39,0
		c0.39,0,0.48,0.08,0.48,0.47c0,3.83,0,7.67,0,11.5c0,0.45,0.01,0.9,0,1.35c-0.01,0.53-0.36,0.99-0.85,1.16
		C-276.89,407-276.96,407.03-277.03,407.05z M-283.41,403.34c1.55,0,3.09,0,4.64,0c0.36,0,0.46-0.1,0.46-0.46c0-2.12,0-4.23,0-6.35
		c0-0.38-0.09-0.47-0.46-0.47c-3.09,0-6.18,0-9.26,0c-0.37,0-0.46,0.09-0.46,0.46c0,2.12,0,4.24,0,6.37c0,0.36,0.1,0.46,0.46,0.46
		C-286.49,403.34-284.95,403.34-283.41,403.34z M-285.93,393.47c-0.49,0-0.97,0-1.46,0c-0.27,0-0.53,0-0.8,0.01
		c-0.18,0.01-0.29,0.13-0.3,0.3c-0.01,0.17,0.1,0.3,0.28,0.33c0.05,0.01,0.1,0.01,0.15,0.01c1.42,0,2.84,0,4.26,0
		c0.07,0,0.14,0,0.21-0.02c0.16-0.05,0.24-0.16,0.23-0.33c-0.01-0.16-0.11-0.27-0.27-0.29c-0.06-0.01-0.13-0.01-0.19-0.01
		C-284.53,393.47-285.23,393.47-285.93,393.47z M-286.74,392.09c0.45,0,0.91,0,1.36,0c0.08,0,0.18-0.02,0.25-0.06
		c0.14-0.08,0.17-0.22,0.12-0.36c-0.05-0.17-0.19-0.22-0.36-0.22c-0.91,0-1.83,0-2.74,0c-0.25,0-0.4,0.13-0.39,0.34
		c0.01,0.2,0.14,0.31,0.39,0.31C-287.64,392.09-287.19,392.09-286.74,392.09z"/>
	<path d="M-279.72,387.65c0.23,0.23,0.47,0.45,0.7,0.69c0.95,0.95,1.9,1.9,2.85,2.85c0.03,0.03,0.06,0.06,0.09,0.09
		c0.11,0.11,0.15,0.24,0.09,0.38c-0.06,0.14-0.17,0.2-0.32,0.2c-0.87,0-1.74,0.01-2.61,0c-0.69-0.01-1.23-0.57-1.24-1.28
		c-0.02-0.85,0-1.7-0.01-2.56c0-0.17,0.09-0.28,0.22-0.37C-279.88,387.65-279.8,387.65-279.72,387.65z"/>
	<path d="M-284.73,398.9c0.9,0,1.79,0,2.69,0c0.31,0,0.42,0.11,0.42,0.42c0,0.26,0,0.52,0,0.78c0,0.27-0.12,0.39-0.38,0.39
		c-1.83,0-3.65,0-5.48,0c-0.25,0-0.37-0.12-0.37-0.38c0-0.28,0-0.56,0-0.83c0-0.27,0.11-0.38,0.38-0.38
		C-286.55,398.9-285.64,398.9-284.73,398.9z"/>
	<path d="M-284.72,396.7c0.89,0,1.78,0,2.67,0c0.32,0,0.43,0.11,0.43,0.43c0,0.24,0,0.48,0,0.72c0,0.28-0.12,0.4-0.39,0.4
		c-1.82,0-3.64,0-5.46,0c-0.26,0-0.37-0.12-0.38-0.37c0-0.27,0-0.54,0-0.81c0-0.25,0.12-0.37,0.37-0.37
		C-286.55,396.7-285.64,396.7-284.72,396.7z"/>
	<path d="M-284.74,401.14c0.9,0,1.79,0,2.69,0c0.32,0,0.43,0.11,0.43,0.43c0,0.25,0,0.49,0,0.74c0,0.25-0.12,0.38-0.37,0.38
		c-1.83,0-3.65,0-5.48,0c-0.25,0-0.37-0.12-0.38-0.37c0-0.27,0-0.54,0-0.81c0-0.25,0.12-0.37,0.38-0.37
		C-286.56,401.14-285.65,401.14-284.74,401.14z"/>
	<path d="M-279.96,398.9c0.22,0,0.44,0,0.66,0c0.22,0,0.34,0.12,0.34,0.34c0.01,0.3,0.01,0.61,0,0.91c0,0.21-0.12,0.33-0.33,0.33
		c-0.45,0.01-0.9,0.01-1.35,0c-0.21,0-0.33-0.14-0.34-0.35c0-0.3,0-0.59,0-0.89c0-0.22,0.13-0.34,0.35-0.34
		C-280.41,398.9-280.19,398.9-279.96,398.9z"/>
	<path d="M-279.96,396.7c0.22,0,0.44,0,0.66,0c0.22,0,0.34,0.12,0.34,0.34c0.01,0.29,0.01,0.58,0,0.87c0,0.21-0.12,0.33-0.33,0.34
		c-0.45,0.01-0.91,0.01-1.36,0c-0.2,0-0.32-0.14-0.33-0.34c0-0.28,0-0.57,0-0.85c0-0.23,0.12-0.35,0.35-0.35
		C-280.4,396.7-280.18,396.7-279.96,396.7z"/>
	<path d="M-279.96,401.14c0.22,0,0.44,0,0.66,0c0.22,0,0.34,0.12,0.34,0.34c0.01,0.29,0.01,0.58,0,0.87c0,0.21-0.12,0.33-0.33,0.33
		c-0.45,0.01-0.9,0.01-1.35,0c-0.21,0-0.33-0.14-0.34-0.35c0-0.28,0-0.57,0-0.85c0-0.22,0.13-0.34,0.35-0.34
		C-280.41,401.13-280.18,401.14-279.96,401.14z"/>
</g>
</svg>
