<?xml version="1.0" encoding="utf-8"?>
<!-- Generator: Adobe Illustrator 23.0.1, SVG Export Plug-In . SVG Version: 6.00 Build 0)  -->
<svg version="1.1" id="Layer_1" xmlns="http://www.w3.org/2000/svg" xmlns:xlink="http://www.w3.org/1999/xlink" x="0px" y="0px"
	 viewBox="-294 386.7 21.2 21.3" style="enable-background:new -294 386.7 21.2 21.3;" xml:space="preserve">
<g>
	<path d="M-289.59,393.92c0.09-2.53,1.21-4.45,3.5-5.56c2.31-1.12,4.56-0.82,6.59,0.75c2.42,1.87,3.02,5.44,1.38,8.05
		c-1.55,2.47-3.14,4.91-4.72,7.36c-0.34,0.53-0.77,0.53-1.11,0c-1.57-2.44-3.14-4.88-4.7-7.33
		C-289.28,396.2-289.61,395.11-289.59,393.92z M-283.43,396.75c1.58,0,2.86-1.25,2.87-2.81c0.01-1.53-1.27-2.83-2.81-2.83
		c-1.58,0-2.86,1.25-2.87,2.81C-286.25,395.45-284.96,396.74-283.43,396.75z"/>
	<path d="M-282.81,407.01c-2.72-0.09-4.81-0.27-6.79-1.08c-0.64-0.26-1.24-0.59-1.72-1.11c-0.69-0.73-0.7-1.69-0.02-2.43
		c0.76-0.82,1.77-1.19,2.81-1.51c0.71-0.21,0.72-0.2,1.12,0.44c0.78,1.22,1.56,2.45,2.35,3.66c0.88,1.36,2.45,1.35,3.33-0.02
		c0.85-1.33,1.7-2.65,2.55-3.99c0.14-0.23,0.27-0.29,0.54-0.21c0.98,0.27,1.94,0.59,2.76,1.22c0.55,0.43,0.97,0.94,0.92,1.71
		c-0.04,0.66-0.43,1.11-0.92,1.48c-0.94,0.73-2.05,1.11-3.2,1.31C-280.5,406.76-281.96,406.9-282.81,407.01z"/>
</g>
</svg>
