<?xml version="1.0" encoding="utf-8"?>
<!-- Generator: Adobe Illustrator 23.0.1, SVG Export Plug-In . SVG Version: 6.00 Build 0)  -->
<svg version="1.1" id="Layer_1" xmlns="http://www.w3.org/2000/svg" xmlns:xlink="http://www.w3.org/1999/xlink" x="0px" y="0px"
	 viewBox="-294 386.7 21.2 21.3" style="enable-background:new -294 386.7 21.2 21.3;" xml:space="preserve">
<g>
	<path d="M-273.86,404.65c-6.36,0-12.71,0-19.07,0c0-4.86,0-9.73,0-14.6c6.36,0,12.71,0,19.07,0
		C-273.86,394.91-273.86,399.78-273.86,404.65z M-281.15,392.33c-2.77,0.03-5,1.97-5.04,5.05c-0.04,2.75,2.27,5.03,5.04,5.02
		s5.08-2.27,5.04-5.01C-276.17,394.21-278.45,392.36-281.15,392.33z M-290.69,393.41c1.5,0,2.98,0,4.47,0c0-0.37,0-0.73,0-1.1
		c-1.5,0-2.98,0-4.47,0C-290.69,392.68-290.69,393.03-290.69,393.41z M-286.22,402.39c0-0.37,0-0.73,0-1.1c-1.5,0-2.98,0-4.47,0
		c0,0.37,0,0.73,0,1.1C-289.19,402.39-287.71,402.39-286.22,402.39z M-290.68,396.79c0,0.37,0,0.74,0,1.1c1.12,0,2.23,0,3.34,0
		c0-0.37,0-0.74,0-1.1C-288.46,396.79-289.56,396.79-290.68,396.79z M-287.34,394.56c-1.13,0-2.23,0-3.35,0c0,0.37,0,0.73,0,1.1
		c1.12,0,2.23,0,3.35,0C-287.34,395.29-287.34,394.93-287.34,394.56z M-287.34,400.14c0-0.38,0-0.74,0-1.1c-1.12,0-2.23,0-3.35,0
		c0,0.37,0,0.73,0,1.1C-289.57,400.14-288.47,400.14-287.34,400.14z"/>
	<path d="M-281.17,393.42c2.15-0.01,3.97,1.75,3.93,3.89c-0.04,2.45-1.79,3.92-3.91,3.94c-2.22,0.02-3.92-1.69-3.93-3.92
		C-285.09,395.19-283.33,393.43-281.17,393.42z M-278.36,396.24c-0.37,0-0.74,0-1.1,0c0,0.38,0,0.74,0,1.1c0.37,0,0.73,0,1.1,0
		C-278.36,396.97-278.36,396.6-278.36,396.24z M-281.71,395.66c0.38,0,0.74,0,1.1,0c0-0.37,0-0.73,0-1.1c-0.37,0-0.73,0-1.1,0
		C-281.71,394.93-281.71,395.29-281.71,395.66z M-280.61,396.8c-0.38,0-0.74,0-1.1,0c0,0.38,0,0.74,0,1.1c0.37,0,0.73,0,1.1,0
		C-280.61,397.53-280.61,397.17-280.61,396.8z"/>
</g>
</svg>
