<?xml version="1.0" encoding="utf-8"?>
<!-- Generator: Adobe Illustrator 23.0.1, SVG Export Plug-In . SVG Version: 6.00 Build 0)  -->
<svg version="1.1" id="Layer_1" xmlns="http://www.w3.org/2000/svg" xmlns:xlink="http://www.w3.org/1999/xlink" x="0px" y="0px"
	 viewBox="-294 386.7 21.2 21.3" style="enable-background:new -294 386.7 21.2 21.3;" xml:space="preserve">
<g>
	<path d="M-278.31,407.04c-3.39,0-6.79,0-10.18,0c-0.06-0.01-0.12-0.03-0.18-0.04c-1.3-0.21-2.23-0.88-2.65-2.16
		c-0.08-0.24-0.11-0.5-0.16-0.75c0-0.38,0-0.76,0-1.14c0.03-0.25,0.05-0.5,0.08-0.75c0.13-1.11,0.36-2.2,0.9-3.2
		c0.6-1.09,1.49-1.77,2.74-1.95c0.46-0.07,0.89-0.03,1.27,0.26c0.21,0.16,0.44,0.29,0.67,0.43c1.62,1,3.24,1,4.86,0
		c0.28-0.17,0.55-0.37,0.83-0.52c0.17-0.09,0.37-0.19,0.56-0.2c0.86-0.01,1.64,0.23,2.31,0.78c0.77,0.63,1.19,1.49,1.48,2.42
		c0.37,1.21,0.49,2.46,0.46,3.72c-0.04,1.38-0.88,2.51-2.2,2.92C-277.78,406.94-278.05,406.98-278.31,407.04z"/>
	<path d="M-283.08,387.66c0.25,0.05,0.51,0.09,0.76,0.15c1.72,0.4,3.18,2.04,3.41,3.79c0.15,1.15-0.02,2.24-0.67,3.22
		c-0.87,1.3-2.06,2.05-3.65,2.16c-2.08,0.14-3.79-1.08-4.57-2.74c-0.73-1.56-0.43-3.64,0.71-4.93c0.7-0.79,1.55-1.34,2.59-1.55
		c0.18-0.04,0.36-0.06,0.54-0.1C-283.66,387.66-283.37,387.66-283.08,387.66z"/>
</g>
</svg>
