<?xml version="1.0" encoding="utf-8"?>
<!-- Generator: Adobe Illustrator 23.0.1, SVG Export Plug-In . SVG Version: 6.00 Build 0)  -->
<svg version="1.1" id="Layer_1" xmlns="http://www.w3.org/2000/svg" xmlns:xlink="http://www.w3.org/1999/xlink" x="0px" y="0px"
	 viewBox="-294 386.7 21.2 21.3" style="enable-background:new -294 386.7 21.2 21.3;" xml:space="preserve">
<g>
	<path d="M-273.86,399.18c-0.13,0.25-0.23,0.52-0.39,0.75c-0.97,1.44-1.96,2.87-2.94,4.3c-0.7,1.03-1.68,1.54-2.91,1.54
		c-2.69,0-5.39,0-8.08,0c-0.06,0-0.12,0-0.19,0c0-0.07-0.01-0.13-0.01-0.19c0-2.33,0-4.67,0-7c0-0.12,0.03-0.2,0.14-0.27
		c1.55-0.94,3.35-0.8,4.72,0.4c0.26,0.23,0.53,0.33,0.87,0.32c0.87-0.02,1.74-0.01,2.61,0c0.82,0.01,1.35,0.75,1.08,1.5
		c-0.16,0.44-0.57,0.73-1.08,0.73c-0.7,0-1.39,0-2.09,0c-0.77,0-1.54,0-2.31,0c-0.43,0-0.7,0.37-0.56,0.75
		c0.08,0.22,0.28,0.36,0.55,0.36c0.66,0,1.32,0,1.97,0c0.91,0,1.81,0,2.72,0c0.43,0,0.79-0.16,1.07-0.51
		c0.93-1.16,1.87-2.32,2.8-3.48c0.29-0.36,0.66-0.54,1.13-0.45c0.47,0.1,0.76,0.39,0.87,0.86c0,0.02,0.02,0.03,0.03,0.04
		C-273.86,398.95-273.86,399.06-273.86,399.18z"/>
	<path d="M-282.06,387.81c0.33,0.09,0.57,0.3,0.82,0.52c1.92,1.77,3.85,3.54,5.78,5.3c0.2,0.18,0.38,0.38,0.44,0.65
		c0.12,0.49-0.07,0.97-0.49,1.22c-0.43,0.26-0.99,0.2-1.36-0.14c-0.96-0.89-1.92-1.78-2.88-2.67c-0.78-0.73-1.57-1.45-2.35-2.18
		c-0.04-0.04-0.08-0.07-0.13-0.12c-0.06,0.05-0.11,0.09-0.16,0.14c-1.73,1.6-3.47,3.2-5.2,4.8c-0.37,0.34-0.83,0.42-1.27,0.21
		c-0.39-0.18-0.65-0.61-0.63-1.06c0.02-0.35,0.19-0.62,0.44-0.85c1.01-0.91,2.01-1.83,3.01-2.75c0.94-0.86,1.88-1.71,2.82-2.58
		c0.24-0.22,0.48-0.43,0.8-0.51C-282.31,387.81-282.18,387.81-282.06,387.81z"/>
	<path d="M-276.51,387.81c0.32,0.15,0.42,0.4,0.42,0.75c-0.02,0.98-0.01,1.96-0.01,2.98c-0.07-0.06-0.12-0.11-0.17-0.15
		c-1-0.93-2.01-1.85-3.01-2.78c-0.23-0.21-0.22-0.46,0.02-0.67c0.06-0.05,0.14-0.09,0.21-0.14
		C-278.2,387.81-277.35,387.81-276.51,387.81z"/>
	<path d="M-289.5,405.05c-0.02-0.98,0-1.96,0-2.94c0-1.2,0-2.39,0-3.59c0-0.93-0.6-1.61-1.52-1.71c-0.38-0.04-0.77,0-1.15-0.02
		c-0.35-0.02-0.6,0.1-0.75,0.41c0,3.09,0,6.18,0,9.28v0.41c0.14,0,0.27,0,0.41,0c0.47,0,0.95,0,1.42,0
		C-290.14,406.88-289.48,405.95-289.5,405.05z"/>
	<path d="M-277.98,399.2c-0.56-1.05-1.46-1.38-2.59-1.28c0-0.08,0-0.15,0-0.21c0-0.47,0-0.94,0-1.42c0-0.39-0.22-0.61-0.61-0.62
		c-0.71,0-1.42,0-2.12,0c-0.39,0-0.61,0.23-0.62,0.61c0,0.26,0,0.52,0,0.81c-1.08-0.52-2.18-0.66-3.33-0.38
		c-0.01-0.01-0.03-0.03-0.04-0.04c0.04-0.07,0.07-0.15,0.13-0.2c1.43-1.33,2.87-2.65,4.31-3.98c0.2-0.18,0.4-0.37,0.61-0.56
		c0.06,0.05,0.1,0.08,0.15,0.13c1.59,1.47,3.17,2.93,4.76,4.4c0.1,0.09,0.13,0.18,0.13,0.3c-0.01,0.45,0,0.89-0.01,1.34
		c0,0.09-0.04,0.19-0.1,0.26C-277.52,398.64-277.75,398.91-277.98,399.2z"/>
	<path d="M-282.8,396.8c0.38,0,0.74,0,1.11,0c0,0.37,0,0.73,0,1.11c-0.33,0-0.65,0.01-0.98-0.01c-0.04,0-0.12-0.09-0.12-0.14
		C-282.81,397.45-282.8,397.13-282.8,396.8z"/>
</g>
</svg>
