<?xml version="1.0" encoding="utf-8"?>
<!-- Generator: Adobe Illustrator 21.0.0, SVG Export Plug-In . SVG Version: 6.00 Build 0)  -->
<svg version="1.1" id="Layer_1" xmlns="http://www.w3.org/2000/svg" xmlns:xlink="http://www.w3.org/1999/xlink" x="0px" y="0px"
	 viewBox="0 0 200 200" style="enable-background:new 0 0 200 200;" xml:space="preserve">
<path d="M94.9,194.3c0-11.5,0-22.9,0-34.6c-4.5,0-8.8,0-13.7,0c1.1-2.5,1.9-4.8,3-6.9c5.5-10.8,14-18.5,25.3-22.9
	c1-0.4,1.7-0.3,2.7,0.3c14,10.2,32.5,10.3,46.7,0.2c1.1-0.8,1.9-0.9,3.2-0.4c18,7.2,29.6,23.9,30,43.3c0.1,7,0,14.1-0.1,21.1
	C159.5,194.3,127.2,194.3,94.9,194.3z"/>
<path d="M48.6,194.3c-2.7-0.7-5.5-1.1-8.2-2.1c-14.1-5-23.4-18.1-23.6-33.1c-0.1-7.4,0-14.8,0-22.2c0-0.7,0-1.3,0-2.2
	c-2.8,0-5.6,0-8.8,0c7-10.3,13.7-20.2,20.6-30.4c6.9,10.1,13.6,20,20.5,30.2c-3,0-5.7,0-8.6,0c0,0.7-0.1,1.3-0.1,1.8
	c0,7.3,0,14.7,0,22c0,7.2,5,12.2,12.2,12.3c9.6,0,19.1,0,28.7,0c0.7,0,1.5,0,2.5,0c0,8,0,15.8,0,23.6
	C72,194.3,60.3,194.3,48.6,194.3z"/>
<path d="M72.6,4.7C73.8,5,75,5.2,76.2,5.6c9.9,2.8,17.1,11.5,17.4,21.9c0.3,7.3,0.4,14.7-0.3,22c-1,11.5-10.7,20.4-22,21
	c-11.6,0.7-22.1-6.9-24.9-18.2c-0.3-1.1-0.6-2.2-0.6-3.3c0.1-8.5-0.6-17.1,0.5-25.5c1.3-10,9.5-16.9,19.5-18.7
	c0.3-0.1,0.6-0.2,0.8-0.3C68.7,4.7,70.7,4.7,72.6,4.7z"/>
<path d="M107,86.8c0-5.1-0.5-10.2,0.1-15.1c1.8-13.6,13.7-23.8,27.8-24.2c13.6-0.4,26,9.4,28.8,22.7c0.2,1.1,0.5,2.2,0.5,3.3
	c0.1,10.2,1.2,20.4-0.6,30.5c-2.4,13.4-15.1,23.2-28.6,22.9c-14-0.4-26.1-10.8-27.9-24.4c-0.7-5.1-0.5-10.3-0.7-15.5
	C106.7,86.8,106.8,86.8,107,86.8z"/>
<path d="M29.4,85.5c4.1-5.7,9.4-9.9,15.9-12.4c0.5-0.2,1.3,0,1.7,0.3c14.1,11.1,30.9,11.1,45.1,0c1-0.8,1.7-0.6,2.5-0.1
	c0.5,0.3,0.9,1.1,0.9,1.7c0.1,5.8,0.2,11.6,0,17.4c-0.4,10,1.2,19.5,7.1,27.9c-3.5,2.1-6.8,4.1-10.2,6.1c-0.5,0.3-1.2,0.3-1.8,0.3
	c-10.6,0-21.2,0-31.8,0c-0.7,0-1.7-0.4-2.1-1c-9-13.2-18-26.4-26.9-39.6C29.6,85.9,29.5,85.8,29.4,85.5z"/>
</svg>
