<?xml version="1.0" encoding="utf-8"?>
<!-- Generator: Adobe Illustrator 23.0.1, SVG Export Plug-In . SVG Version: 6.00 Build 0)  -->
<svg version="1.1" id="Layer_1" xmlns="http://www.w3.org/2000/svg" xmlns:xlink="http://www.w3.org/1999/xlink" x="0px" y="0px"
	 viewBox="-294 386.7 21.2 21.3" style="enable-background:new -294 386.7 21.2 21.3;" xml:space="preserve">
<g>
	<path d="M-283.92,406.89c0-1.15,0-2.31,0-3.48c-0.45,0-0.89,0-1.37,0c0.11-0.26,0.19-0.48,0.3-0.69c0.56-1.09,1.41-1.86,2.55-2.31
		c0.1-0.04,0.18-0.03,0.27,0.03c1.41,1.03,3.27,1.03,4.69,0.02c0.11-0.08,0.2-0.09,0.32-0.04c1.81,0.72,2.98,2.4,3.01,4.35
		c0.01,0.71,0,1.41-0.01,2.12C-277.41,406.89-280.66,406.89-283.92,406.89z"/>
	<path d="M-288.57,406.89c-0.28-0.07-0.56-0.11-0.82-0.21c-1.42-0.5-2.35-1.82-2.37-3.33c-0.01-0.74,0-1.49,0-2.23
		c0-0.07,0-0.14,0-0.22c-0.29,0-0.56,0-0.88,0c0.7-1.03,1.38-2.03,2.07-3.06c0.69,1.02,1.37,2.02,2.06,3.04c-0.3,0-0.58,0-0.86,0
		c0,0.07-0.01,0.13-0.01,0.18c0,0.74,0,1.48,0,2.22c0,0.73,0.5,1.23,1.23,1.23c0.96,0,1.92,0,2.89,0c0.07,0,0.15,0,0.25,0
		c0,0.81,0,1.59,0,2.38C-286.21,406.89-287.39,406.89-288.57,406.89z"/>
	<path d="M-286.15,387.82c0.12,0.03,0.24,0.06,0.36,0.09c1,0.28,1.72,1.16,1.75,2.21c0.03,0.74,0.04,1.48-0.03,2.21
		c-0.1,1.15-1.08,2.05-2.21,2.12c-1.17,0.07-2.22-0.7-2.51-1.83c-0.03-0.11-0.06-0.22-0.06-0.33c0.01-0.85-0.06-1.72,0.05-2.56
		c0.13-1,0.95-1.7,1.96-1.88c0.03-0.01,0.06-0.02,0.08-0.03C-286.55,387.82-286.35,387.82-286.15,387.82z"/>
	<path d="M-282.69,396.08c0-0.51-0.05-1.02,0.01-1.52c0.18-1.37,1.38-2.39,2.8-2.44c1.37-0.04,2.62,0.94,2.9,2.28
		c0.02,0.11,0.05,0.22,0.05,0.33c0.01,1.02,0.12,2.05-0.06,3.06c-0.24,1.35-1.51,2.34-2.88,2.3c-1.41-0.04-2.62-1.08-2.81-2.46
		c-0.07-0.51-0.05-1.04-0.07-1.56C-282.73,396.08-282.71,396.08-282.69,396.08z"/>
	<path d="M-290.5,395.95c0.41-0.57,0.94-1,1.6-1.25c0.05-0.02,0.13,0,0.18,0.03c1.41,1.11,3.11,1.12,4.53,0
		c0.1-0.08,0.18-0.06,0.25-0.01c0.05,0.03,0.09,0.11,0.09,0.17c0.01,0.58,0.02,1.17,0,1.75c-0.04,1.01,0.12,1.97,0.71,2.8
		c-0.35,0.21-0.69,0.42-1.03,0.62c-0.05,0.03-0.12,0.03-0.18,0.03c-1.07,0-2.14,0-3.2,0c-0.07,0-0.18-0.04-0.21-0.1
		c-0.91-1.33-1.81-2.66-2.71-3.99C-290.48,395.99-290.49,395.97-290.5,395.95z"/>
</g>
</svg>
