<?xml version="1.0" encoding="utf-8"?>
<!-- Generator: Adobe Illustrator 23.0.1, SVG Export Plug-In . SVG Version: 6.00 Build 0)  -->
<svg version="1.1" id="Layer_1" xmlns="http://www.w3.org/2000/svg" xmlns:xlink="http://www.w3.org/1999/xlink" x="0px" y="0px"
	 viewBox="-294 386.7 21.2 21.3" style="enable-background:new -294 386.7 21.2 21.3;" xml:space="preserve">
<g>
	<path d="M-283.42,403.41c-2.97,0-5.95,0-8.92,0c-0.56,0-0.62-0.06-0.62-0.61c0-0.11,0-0.21,0-0.32c0.01-0.24-0.05-0.53,0.07-0.69
		c0.1-0.15,0.4-0.18,0.61-0.25c0.6-0.19,0.96-0.73,0.91-1.37c-0.05-0.58-0.54-1.07-1.15-1.12c-0.32-0.03-0.45-0.17-0.44-0.48
		c0.01-0.34,0.01-0.69,0-1.04c-0.01-0.36,0.16-0.49,0.51-0.49c0.96,0.01,1.91,0.01,2.87-0.01c0.19,0,0.42-0.09,0.55-0.21
		c1.49-1.37,2.98-2.76,4.45-4.16c0.12-0.11,0.2-0.3,0.23-0.46c0.09-0.51,0.49-0.9,0.96-0.89c0.48,0,0.87,0.39,0.96,0.9
		c0.03,0.16,0.11,0.35,0.23,0.46c1.48,1.4,2.96,2.78,4.45,4.16c0.13,0.12,0.34,0.2,0.51,0.21c0.96,0.02,1.91,0.01,2.87,0.01
		c0.45,0,0.53,0.09,0.54,0.53c0,0.31,0,0.61,0,0.92c0.01,0.29-0.11,0.43-0.41,0.47c-0.71,0.07-1.18,0.59-1.18,1.26
		c0,0.69,0.46,1.2,1.2,1.29c0.28,0.03,0.4,0.17,0.4,0.44c0,0.28,0,0.56,0,0.84c0,0.59-0.05,0.64-0.63,0.64c-2.12,0-4.25,0-6.37,0
		C-281.7,403.41-282.56,403.41-283.42,403.41z M-288.32,397.01c3.32,0,6.54,0,9.84,0c-1.47-1.38-2.89-2.71-4.31-4.04
		c-0.43,0.33-0.84,0.26-1.24,0.02C-285.45,394.32-286.85,395.64-288.32,397.01z M-282.44,399.79c0.03,0,0.05-0.01,0.08-0.01
		c0.05,0.06,0.1,0.13,0.14,0.19c0.46,0.65,0.9,1.31,1.38,1.95c0.08,0.11,0.29,0.2,0.42,0.17c0.09-0.02,0.2-0.24,0.2-0.37
		c0.02-1,0.01-1.99,0.01-2.99c0-0.22-0.05-0.41-0.31-0.42c-0.28-0.01-0.33,0.2-0.33,0.44c0.01,0.53,0,1.06,0,1.59
		c0,0.1-0.01,0.21-0.03,0.4c-0.55-0.79-1.04-1.5-1.55-2.19c-0.09-0.12-0.3-0.15-0.45-0.23c-0.07,0.14-0.19,0.29-0.19,0.43
		c-0.02,0.97-0.01,1.94-0.01,2.91c0,0.23,0.02,0.45,0.31,0.46c0.31,0.01,0.33-0.23,0.33-0.48
		C-282.44,401.03-282.44,400.41-282.44,399.79z M-287.85,400.46c0.08-0.06,0.13-0.1,0.18-0.14c0.42-0.36,0.55-0.81,0.38-1.28
		c-0.18-0.48-0.56-0.73-1.11-0.73c-0.32,0-0.64,0.01-0.96,0c-0.31-0.01-0.42,0.14-0.42,0.43c0.01,0.99,0,1.99,0,2.98
		c0,0.23,0.07,0.41,0.33,0.4c0.26-0.01,0.32-0.19,0.31-0.41c-0.01-0.38,0-0.76,0-1.13c0.41-0.12,0.66-0.03,0.8,0.36
		c0.11,0.3,0.28,0.57,0.42,0.85c0.11,0.21,0.23,0.43,0.51,0.3c0.27-0.13,0.2-0.36,0.09-0.58
		C-287.5,401.18-287.66,400.83-287.85,400.46z M-285.6,401.49c0-0.32,0-0.62,0-0.96c0.38,0,0.75,0,1.12,0
		c0.24,0,0.44-0.05,0.43-0.33c-0.01-0.26-0.2-0.31-0.42-0.31c-0.38,0.01-0.76,0-1.14,0c0-0.34,0-0.64,0-0.96c0.4,0,0.77,0,1.14,0
		c0.22,0,0.41-0.05,0.42-0.31c0.01-0.25-0.16-0.33-0.39-0.33c-0.48,0-0.95,0-1.43,0c-0.26,0-0.4,0.11-0.4,0.38c0,1.02,0,2.04,0,3.06
		c0,0.26,0.12,0.39,0.39,0.39c0.49,0,0.98,0.02,1.47-0.02c0.13-0.01,0.25-0.2,0.37-0.3c-0.12-0.11-0.24-0.29-0.37-0.3
		C-284.79,401.47-285.18,401.49-285.6,401.49z M-277.66,398.94c0.33,0,0.61,0.03,0.88-0.01c0.14-0.02,0.35-0.17,0.37-0.29
		c0.05-0.24-0.15-0.33-0.38-0.33c-0.8,0-1.59,0-2.39,0c-0.23,0-0.43,0.09-0.38,0.33c0.03,0.12,0.23,0.27,0.37,0.29
		c0.28,0.05,0.57,0.01,0.88,0.01c0,0.85,0,1.64,0,2.43c0,0.12-0.04,0.26,0.01,0.35c0.07,0.15,0.17,0.35,0.29,0.38
		c0.24,0.05,0.34-0.14,0.34-0.37C-277.66,400.82-277.66,399.91-277.66,398.94z"/>
	<path d="M-289.12,399.9c0-0.33,0-0.62,0-0.95c0.27,0,0.53-0.01,0.79,0c0.27,0.02,0.45,0.18,0.46,0.45
		c0.01,0.29-0.18,0.47-0.46,0.49C-288.58,399.91-288.83,399.9-289.12,399.9z"/>
</g>
</svg>
