<?xml version="1.0" encoding="utf-8"?>
<!-- Generator: Adobe Illustrator 23.0.1, SVG Export Plug-In . SVG Version: 6.00 Build 0)  -->
<svg version="1.1" id="Layer_1" xmlns="http://www.w3.org/2000/svg" xmlns:xlink="http://www.w3.org/1999/xlink" x="0px" y="0px"
	 viewBox="-294 386.7 21.2 21.3" style="enable-background:new -294 386.7 21.2 21.3;" xml:space="preserve">
<g>
	<path d="M-285.46,403.48c0.88-0.76,0.67-1.62,0.54-2.48c0.1-0.04,0.18-0.09,0.27-0.12c0.99-0.4,1.33-1.06,1.06-2.1
		c-0.16-0.62-0.49-1.13-0.95-1.57c-0.09-0.08-0.12-0.26-0.13-0.39c-0.01-0.21,0.02-0.42,0.05-0.63c0.02-0.11,0.06-0.24,0.13-0.32
		c0.83-0.84,1.66-1.68,2.5-2.51c0.28-0.28,0.57-0.29,0.85-0.01c1.85,1.84,3.7,3.68,5.52,5.54c0.15,0.15,0.23,0.44,0.23,0.67
		c0.03,0.84,0.03,1.69,0.01,2.53c-0.02,0.88-0.52,1.37-1.41,1.37c-0.84,0.01-1.69,0.01-2.53,0c-0.85-0.01-1.34-0.47-1.37-1.33
		c-0.02-0.57,0-1.14-0.01-1.71c0-0.21-0.02-0.43-0.09-0.62c-0.13-0.36-0.56-0.62-0.87-0.56c-0.43,0.08-0.77,0.46-0.78,0.92
		c-0.02,0.65,0,1.29-0.01,1.94c0,0.84-0.5,1.35-1.33,1.37C-284.29,403.48-284.82,403.48-285.46,403.48z"/>
	<path d="M-288.23,398.61c0.76,0.25,1.38,0.65,1.85,1.25c0.5,0.63,0.76,1.35,0.81,2.15c0.02,0.41-0.15,0.71-0.48,0.94
		c-0.58,0.41-1.25,0.55-1.92,0.64c-1.25,0.18-2.5,0.13-3.71-0.27c-0.01,0-0.02,0-0.04-0.01c-1.1-0.35-1.41-0.89-1.13-1.99
		c0.32-1.27,1.1-2.14,2.31-2.63c0.06-0.02,0.12-0.04,0.17-0.06c0.02-0.01,0.04-0.03,0.06-0.04c-1.18-0.96-0.89-2.27-0.25-2.9
		c0.73-0.71,1.95-0.7,2.64,0.03C-287.24,396.43-287.1,397.7-288.23,398.61z"/>
	<path d="M-281.51,392.22c-1.14,1.15-2.19,2.21-3.25,3.28c-0.23-0.26-0.45-0.5-0.69-0.77c0.04-0.05,0.1-0.13,0.17-0.2
		c1.07-1.07,2.14-2.14,3.21-3.21c0.41-0.41,0.62-0.41,1.03,0c0.69,0.69,1.39,1.39,2.08,2.08c0.08,0.08,0.17,0.16,0.33,0.3
		c0-0.46,0-0.84,0-1.22c0.01-0.39,0.18-0.59,0.51-0.59c0.32,0,0.52,0.21,0.53,0.59c0.01,0.67-0.01,1.34,0.01,2.01
		c0.01,0.16,0.08,0.36,0.2,0.48c1.1,1.12,2.21,2.22,3.31,3.33c0.27,0.28,0.28,0.55,0.04,0.78c-0.21,0.21-0.5,0.2-0.76-0.03
		c-0.07-0.07-0.14-0.14-0.21-0.21c-1.82-1.82-3.6-3.67-5.45-5.45C-280.57,393.28-281.48,392.33-281.51,392.22z"/>
	<path d="M-285.86,397.33c0.78,0.3,1.31,0.82,1.52,1.65c0.18,0.74-0.4,1.42-1.17,1.35c-0.05,0-0.12-0.05-0.14-0.09
		c-0.43-0.78-1.05-1.37-1.85-1.77c0.65-0.92,0.69-1.83,0.09-2.75c0.24-0.51,1.12-0.61,1.57-0.26
		C-285.26,395.91-285.26,396.56-285.86,397.33z"/>
</g>
</svg>
