<?xml version="1.0" encoding="utf-8"?>
<!-- Generator: Adobe Illustrator 23.0.1, SVG Export Plug-In . SVG Version: 6.00 Build 0)  -->
<svg version="1.1" id="Layer_1" xmlns="http://www.w3.org/2000/svg" xmlns:xlink="http://www.w3.org/1999/xlink" x="0px" y="0px"
	 viewBox="-294 386.7 21.2 21.3" style="enable-background:new -294 386.7 21.2 21.3;" xml:space="preserve">
<g id="XMLID_5_">
	<g id="XMLID_13_">
		<g id="XMLID_14_">
			<path id="XMLID_15_" d="M-275.35,398.1c0.06-0.65,0.04-1.3-0.06-1.94l1.47-0.65c-0.14-0.71-0.35-1.41-0.65-2.09
				s-0.68-1.3-1.12-1.88l-1.47,0.65c-0.41-0.5-0.88-0.95-1.4-1.33l0.58-1.5c-0.59-0.41-1.25-0.75-1.94-1
				c-0.69-0.27-1.4-0.45-2.12-0.55l-0.58,1.5c-0.65-0.06-1.3-0.04-1.94,0.06l-0.65-1.46c-1.44,0.28-2.8,0.91-3.96,1.78l0.65,1.44
				c-0.5,0.41-0.95,0.88-1.33,1.4l-1.5-0.57c-0.41,0.59-0.75,1.25-1.02,1.94s-0.44,1.4-0.55,2.12l1.5,0.58
				c-0.06,0.65-0.04,1.3,0.06,1.94l-1.47,0.65c0.14,0.71,0.35,1.41,0.65,2.09c0.3,0.68,0.68,1.3,1.12,1.88l1.47-0.65
				c0.41,0.5,0.88,0.95,1.4,1.33l-0.58,1.5c0.59,0.41,1.25,0.75,1.94,1c0.69,0.27,1.4,0.45,2.12,0.55l0.58-1.5
				c0.65,0.06,1.3,0.04,1.94-0.06l0.65,1.46c1.44-0.28,2.8-0.91,3.96-1.78l-0.65-1.44c0.5-0.41,0.95-0.88,1.33-1.4l1.49,0.57
				c0.41-0.59,0.75-1.25,1.02-1.94c0.27-0.69,0.45-1.4,0.55-2.12L-275.35,398.1z M-279.34,398.91c-0.86,2.25-3.38,3.37-5.62,2.5
				c-2.24-0.86-3.37-3.38-2.5-5.62c0.86-2.24,3.38-3.37,5.62-2.5C-279.59,394.14-278.48,396.66-279.34,398.91z"/>
		</g>
	</g>
</g>
</svg>
