<?xml version="1.0" encoding="utf-8"?>
<!-- Generator: Adobe Illustrator 23.0.1, SVG Export Plug-In . SVG Version: 6.00 Build 0)  -->
<svg version="1.1" id="Layer_1" xmlns="http://www.w3.org/2000/svg" xmlns:xlink="http://www.w3.org/1999/xlink" x="0px" y="0px"
	 viewBox="-294 386.7 21.2 21.3" style="enable-background:new -294 386.7 21.2 21.3;" xml:space="preserve">
<g>
	<path d="M-279.24,407.05c-0.37-0.09-0.76-0.13-1.12-0.26c-1.75-0.64-2.83-1.89-3.12-3.74c-0.39-2.51,1.18-4.77,3.64-5.33
		c2.65-0.61,5.32,1.24,5.69,3.93c0.36,2.61-1.4,4.97-3.99,5.36c-0.09,0.01-0.17,0.03-0.26,0.05
		C-278.68,407.05-278.96,407.05-279.24,407.05z M-279.14,402.65c-0.03,0-0.04,0-0.04,0c-0.29-0.21-0.57-0.41-0.86-0.62
		c-0.28-0.19-0.62-0.15-0.81,0.11c-0.19,0.26-0.13,0.61,0.15,0.82c0.43,0.31,0.86,0.63,1.29,0.93c0.3,0.21,0.6,0.17,0.83-0.12
		c0.36-0.44,0.71-0.89,1.07-1.33c0.24-0.3,0.48-0.59,0.71-0.89c0.15-0.2,0.17-0.42,0.04-0.64c-0.11-0.21-0.34-0.33-0.58-0.26
		c-0.14,0.04-0.29,0.13-0.38,0.25C-278.2,401.48-278.67,402.07-279.14,402.65z"/>
	<path d="M-283.8,405.39c-0.08,0-0.15,0-0.22,0c-2.1,0-4.21,0-6.31,0c-1.37,0-2.36-0.99-2.36-2.37c0-4.34,0-8.68,0-13.02
		c0-1.36,1-2.36,2.36-2.36c3.27,0,6.53,0,9.8,0c1.36,0,2.36,1,2.36,2.35c0,2.11,0,4.22,0,6.33c0,0.06,0,0.12,0,0.19
		c-2.37-0.14-4.28,0.7-5.55,2.7C-285,401.23-284.93,403.3-283.8,405.39z M-288.09,401.66c0.52,0,1.05,0,1.57,0
		c0.08,0,0.16,0,0.24-0.02c0.29-0.06,0.46-0.31,0.44-0.6c-0.02-0.28-0.24-0.51-0.53-0.51c-1.15-0.01-2.3-0.01-3.45,0
		c-0.29,0-0.52,0.23-0.54,0.51c-0.02,0.29,0.16,0.53,0.44,0.6c0.08,0.02,0.16,0.02,0.24,0.02
		C-289.14,401.66-288.61,401.66-288.09,401.66z M-288.09,391.39c-0.54,0-1.09,0-1.63,0c-0.38,0-0.63,0.22-0.63,0.55
		c0,0.33,0.24,0.58,0.61,0.58c1.1,0.01,2.2,0,3.3,0c0.37,0,0.62-0.24,0.61-0.58c0-0.33-0.25-0.55-0.63-0.56
		C-287,391.39-287.54,391.39-288.09,391.39z M-288.08,393.66c-0.55,0-1.1,0-1.65,0c-0.37,0-0.61,0.22-0.62,0.55
		c-0.01,0.34,0.24,0.59,0.6,0.59c1.11,0.01,2.21,0.01,3.32,0c0.37,0,0.61-0.25,0.6-0.59c-0.01-0.33-0.25-0.54-0.62-0.55
		C-286.99,393.66-287.54,393.66-288.08,393.66z M-288.09,395.94c-0.54,0-1.09,0-1.63,0c-0.09,0-0.18,0.01-0.26,0.04
		c-0.26,0.09-0.41,0.36-0.36,0.63c0.05,0.28,0.28,0.47,0.61,0.47c1.1,0,2.2,0,3.3,0c0.37,0,0.62-0.25,0.61-0.58
		c0-0.33-0.25-0.55-0.61-0.55C-286.99,395.94-287.54,395.94-288.09,395.94z M-288.09,398.21c-0.54,0-1.07,0-1.61,0
		c-0.09,0-0.19,0.01-0.28,0.04c-0.26,0.09-0.41,0.36-0.36,0.63c0.05,0.28,0.29,0.46,0.61,0.47c1.09,0,2.19,0,3.28,0
		c0.38,0,0.64-0.24,0.63-0.58c0-0.33-0.25-0.55-0.63-0.55C-287,398.21-287.55,398.21-288.09,398.21z M-282.79,391.39
		c-0.54,0-1.09,0-1.63,0c-0.38,0-0.63,0.22-0.63,0.56c0,0.33,0.24,0.58,0.62,0.58c1.1,0,2.2,0.01,3.3,0c0.37,0,0.62-0.25,0.61-0.58
		c-0.01-0.33-0.25-0.55-0.62-0.55C-281.69,391.39-282.24,391.39-282.79,391.39z M-282.78,393.66c-0.55,0-1.1,0-1.65,0
		c-0.36,0-0.61,0.23-0.61,0.55c-0.01,0.34,0.24,0.58,0.61,0.58c1.1,0.01,2.2,0,3.3,0c0.37,0,0.62-0.24,0.62-0.58
		c0-0.33-0.25-0.56-0.63-0.56C-281.7,393.66-282.24,393.66-282.78,393.66z M-283.65,395.94c-0.27,0-0.54,0-0.81,0
		c-0.34,0-0.58,0.23-0.59,0.54c-0.01,0.32,0.22,0.58,0.56,0.59c0.55,0.01,1.1,0.01,1.65,0c0.33-0.01,0.57-0.27,0.56-0.57
		c0-0.32-0.25-0.55-0.59-0.56C-283.13,395.94-283.39,395.94-283.65,395.94z"/>
</g>
</svg>
