<?xml version="1.0" encoding="utf-8"?>
<!-- Generator: Adobe Illustrator 23.0.1, SVG Export Plug-In . SVG Version: 6.00 Build 0)  -->
<svg version="1.1" id="Layer_1" xmlns="http://www.w3.org/2000/svg" xmlns:xlink="http://www.w3.org/1999/xlink" x="0px" y="0px"
	 viewBox="-294 386.7 21.2 21.3" style="enable-background:new -294 386.7 21.2 21.3;" xml:space="preserve">
<g>
	<path d="M-283.1,387.83c0.34,0.04,0.69,0.06,1.03,0.11c1.17,0.16,2.26,0.53,3.29,1.1c0.24,0.13,0.27,0.32,0.11,0.54
		c-0.34,0.46-0.69,0.92-1.03,1.38c-0.28,0.37-0.34,0.79-0.22,1.23c0.05,0.17,0.09,0.33,0.14,0.5c0.09,0.31,0.19,0.62,0.26,0.93
		c0.14,0.6,0.53,0.9,1.12,0.97c0.27,0.04,0.54,0.07,0.81,0.11c0.26,0.04,0.44,0.18,0.55,0.42c0.19,0.42,0.39,0.84,0.59,1.26
		c0.11,0.24,0.11,0.45-0.03,0.69c-0.19,0.32-0.36,0.65-0.53,0.98c-0.18,0.34-0.18,0.69,0.01,1.03c0.17,0.3,0.35,0.6,0.54,0.89
		c0.4,0.59,0.81,1.17,1.22,1.75c0.13,0.18,0.13,0.34,0.02,0.53c-0.76,1.25-1.75,2.28-2.98,3.09c-0.14,0.09-0.27,0.16-0.43,0.06
		c-0.16-0.11-0.16-0.25-0.13-0.43c0.16-0.84,0.32-1.69,0.47-2.54c0.07-0.37-0.03-0.7-0.29-0.96c-0.57-0.58-1.16-1.15-1.76-1.71
		c-0.23-0.22-0.52-0.25-0.82-0.25c-0.79-0.01-1.59,0-2.38,0c-0.36,0-0.6-0.27-0.57-0.61c0.02-0.19,0.12-0.32,0.27-0.42
		c0.27-0.18,0.53-0.37,0.79-0.55c0.37-0.25,0.56-0.6,0.56-1.03c0.01-1.07,0.02-2.13,0-3.2c-0.01-0.53-0.4-0.95-0.91-1.06
		c-0.53-0.12-1.02,0.08-1.3,0.54c-0.05,0.08-0.1,0.16-0.14,0.24c-0.19,0.46-0.9,0.47-1.13,0.06c-0.05-0.09-0.11-0.18-0.16-0.27
		c-0.08-0.14-0.15-0.27-0.22-0.41c-0.26-0.51-0.64-0.81-1.22-0.91c-0.84-0.14-1.67-0.34-2.51-0.52c-0.14-0.03-0.26-0.09-0.31-0.23
		c-0.05-0.15,0.02-0.27,0.13-0.38c1.43-1.47,3.14-2.39,5.15-2.76c0.38-0.07,0.77-0.09,1.16-0.14c0.08-0.01,0.16-0.02,0.24-0.03
		C-283.5,387.83-283.3,387.83-283.1,387.83z"/>
	<path d="M-292.92,396.79c0.03-0.21,0.05-0.43,0.08-0.64c0.04-0.33,0.19-0.43,0.5-0.35c0.08,0.02,0.15,0.05,0.23,0.06
		c0.37,0.04,0.56,0.26,0.67,0.59c0.33,0.94,0.67,1.87,1,2.81c0.15,0.42,0.41,0.7,0.83,0.86c0.99,0.37,1.98,0.75,2.96,1.13
		c0.35,0.13,0.46,0.3,0.45,0.68c-0.01,0.51-0.03,1.01-0.04,1.52c-0.01,0.38,0.15,0.69,0.43,0.95c0.64,0.6,1.27,1.22,1.9,1.83
		c0.27,0.26,0.24,0.46-0.08,0.64c-0.05,0-0.1,0-0.15,0c-0.04-0.01-0.08-0.03-0.12-0.03c-1.09-0.09-2.14-0.36-3.12-0.83
		c-2.95-1.44-4.76-3.77-5.39-7c-0.07-0.34-0.1-0.68-0.15-1.03C-292.92,397.59-292.92,397.19-292.92,396.79z"/>
	<path d="M-273.88,397.94c-0.05,0.36-0.07,0.73-0.15,1.08c-0.13,0.57-0.3,1.13-0.46,1.7c-0.04,0.14-0.13,0.24-0.28,0.26
		c-0.15,0.02-0.25-0.06-0.34-0.19c-0.42-0.62-0.84-1.24-1.27-1.85c-0.14-0.2-0.16-0.4-0.06-0.61c0.11-0.22,0.24-0.43,0.35-0.65
		c0.12-0.24,0.23-0.48,0.32-0.73c0.08-0.24,0.05-0.48-0.05-0.71c-0.22-0.48-0.46-0.96-0.68-1.44c-0.21-0.45-0.56-0.68-1.04-0.73
		c-0.27-0.03-0.54-0.08-0.81-0.11c-0.28-0.04-0.46-0.18-0.54-0.46c-0.14-0.53-0.28-1.05-0.43-1.58c-0.05-0.17-0.04-0.33,0.07-0.48
		c0.39-0.53,0.78-1.07,1.18-1.6c0.13-0.17,0.3-0.17,0.49-0.03c1.17,0.91,2.09,2.02,2.74,3.35c0.53,1.09,0.85,2.24,0.94,3.45
		c0,0.05,0.02,0.11,0.03,0.16C-273.88,397.18-273.88,397.56-273.88,397.94z"/>
	<path d="M-283.11,395.35c0,0.48,0,0.97,0,1.45c0,0.23-0.07,0.42-0.25,0.55c-0.18,0.14-0.37,0.27-0.56,0.4
		c-0.14,0.1-0.29,0.2-0.42,0.31c-0.4,0.34-0.52,0.81-0.34,1.29c0.17,0.47,0.6,0.78,1.11,0.78c0.8,0,1.6,0.01,2.4,0
		c0.2,0,0.36,0.05,0.5,0.19c0.54,0.52,1.08,1.04,1.61,1.57c0.08,0.08,0.12,0.24,0.11,0.35c-0.05,0.44-0.12,0.87-0.2,1.3
		c-0.14,0.76-0.29,1.52-0.43,2.28c-0.03,0.18-0.12,0.3-0.29,0.37c-0.72,0.28-1.47,0.47-2.24,0.59c-0.2,0.03-0.34-0.03-0.48-0.16
		c-0.66-0.64-1.33-1.28-1.99-1.92c-0.27-0.26-0.53-0.52-0.8-0.77c-0.16-0.15-0.23-0.31-0.23-0.52c0.02-0.49,0.03-0.98,0.04-1.47
		c0.02-0.65-0.25-1.06-0.85-1.29c-0.94-0.36-1.88-0.72-2.83-1.07c-0.34-0.12-0.54-0.32-0.66-0.68c-0.29-0.9-0.62-1.79-0.93-2.68
		c-0.19-0.56-0.57-0.9-1.16-0.99c-0.1-0.02-0.2-0.05-0.31-0.08c-0.21-0.06-0.31-0.21-0.25-0.42c0.28-1,0.72-1.92,1.31-2.77
		c0.11-0.16,0.26-0.12,0.4-0.09c0.37,0.06,0.74,0.14,1.11,0.22c0.73,0.15,1.46,0.32,2.2,0.47c0.21,0.04,0.37,0.14,0.48,0.32
		c0.1,0.17,0.2,0.34,0.3,0.51c0.09,0.16,0.18,0.31,0.27,0.46c0.48,0.78,1.76,0.73,2.15-0.05c0.05-0.09,0.11-0.18,0.16-0.27
		c0.15-0.24,0.37-0.34,0.63-0.27c0.27,0.07,0.42,0.26,0.42,0.56C-283.1,394.32-283.11,394.84-283.11,395.35z"/>
</g>
</svg>
