<?xml version="1.0" encoding="utf-8"?>
<!-- Generator: Adobe Illustrator 23.0.1, SVG Export Plug-In . SVG Version: 6.00 Build 0)  -->
<svg version="1.1" id="Layer_1" xmlns="http://www.w3.org/2000/svg" xmlns:xlink="http://www.w3.org/1999/xlink" x="0px" y="0px"
	 viewBox="-294 386.7 21.2 21.3" style="enable-background:new -294 386.7 21.2 21.3;" xml:space="preserve">
<style type="text/css">
	.st0{fill:#FFFFFF;}
</style>
<g>
	<path d="M-274.65,406.88c-5.84,0-11.67,0-17.51,0c-0.39-0.13-0.65-0.39-0.78-0.78c0-5.84,0-11.67,0-17.51
		c0.13-0.39,0.39-0.65,0.78-0.78c5.84,0,11.67,0,17.51,0c0.39,0.13,0.65,0.39,0.78,0.78c0,5.84,0,11.67,0,17.51
		C-274,406.49-274.26,406.75-274.65,406.88z M-280.11,394.06c1.72,0,3.44,0,5.16,0c0.32,0,0.43-0.11,0.43-0.43c0-0.6,0-1.19,0-1.79
		c0-0.29-0.12-0.41-0.41-0.41c-3.45,0-6.9,0-10.36,0c-0.3,0-0.41,0.12-0.41,0.41c0,0.58,0,1.16,0,1.75c0,0.38,0.1,0.47,0.47,0.47
		C-283.52,394.06-281.82,394.06-280.11,394.06z M-281.12,399.98c1.4,0,2.81,0,4.21,0c0.29,0,0.41-0.12,0.41-0.41
		c0-0.6,0-1.21,0-1.81c0-0.29-0.12-0.41-0.41-0.41c-2.79,0-5.59,0-8.38,0c-0.3,0-0.41,0.12-0.41,0.41c0,0.59,0,1.18,0,1.77
		c0,0.35,0.1,0.45,0.45,0.45C-283.87,399.98-282.5,399.98-281.12,399.98z M-291.13,390.45c-0.25,0-0.49,0-0.74,0
		c-0.18,0-0.33,0.05-0.39,0.24c-0.06,0.18,0.04,0.3,0.17,0.4c0.41,0.32,0.81,0.65,1.22,0.97c0.13,0.1,0.18,0.19,0.11,0.36
		c-0.18,0.48-0.33,0.97-0.49,1.46c-0.06,0.18-0.07,0.34,0.1,0.46c0.17,0.12,0.32,0.05,0.46-0.07c0.4-0.32,0.81-0.64,1.2-0.97
		c0.12-0.1,0.2-0.11,0.33-0.01c0.4,0.33,0.81,0.65,1.21,0.98c0.14,0.11,0.29,0.17,0.45,0.06c0.17-0.12,0.17-0.28,0.11-0.46
		c-0.17-0.5-0.33-1-0.5-1.5c-0.05-0.13-0.03-0.21,0.08-0.29c0.43-0.33,0.85-0.67,1.27-1.01c0.13-0.11,0.22-0.23,0.16-0.41
		c-0.06-0.17-0.2-0.23-0.37-0.22c-0.49,0-0.99-0.01-1.48,0.01c-0.15,0-0.21-0.05-0.26-0.19c-0.16-0.5-0.33-0.99-0.49-1.48
		c-0.06-0.17-0.14-0.3-0.34-0.3c-0.2,0-0.28,0.12-0.34,0.3c-0.16,0.51-0.34,1.01-0.5,1.52c-0.04,0.12-0.09,0.16-0.22,0.16
		C-290.63,390.44-290.88,390.45-291.13,390.45z M-291.12,396.36c-0.25,0-0.51,0-0.76,0c-0.18,0-0.31,0.05-0.37,0.23
		c-0.06,0.18,0.02,0.3,0.16,0.41c0.41,0.33,0.82,0.66,1.24,0.98c0.12,0.1,0.17,0.18,0.11,0.34c-0.18,0.49-0.33,0.99-0.5,1.48
		c-0.06,0.18-0.06,0.34,0.11,0.46c0.16,0.11,0.31,0.05,0.45-0.06c0.39-0.32,0.8-0.63,1.18-0.95c0.14-0.12,0.23-0.14,0.38-0.01
		c0.39,0.33,0.8,0.64,1.2,0.97c0.14,0.11,0.29,0.17,0.45,0.05c0.16-0.11,0.16-0.27,0.1-0.44c-0.17-0.5-0.33-1-0.5-1.5
		c-0.05-0.14-0.03-0.22,0.09-0.31c0.42-0.33,0.84-0.67,1.25-1c0.13-0.11,0.23-0.23,0.17-0.4c-0.06-0.18-0.2-0.24-0.39-0.24
		c-0.49,0-0.99-0.01-1.48,0.01c-0.15,0-0.2-0.05-0.24-0.18c-0.15-0.49-0.32-0.97-0.48-1.46c-0.06-0.18-0.14-0.34-0.36-0.33
		c-0.21,0-0.29,0.15-0.34,0.33c-0.16,0.5-0.34,1-0.5,1.5c-0.04,0.11-0.08,0.15-0.2,0.15C-290.62,396.36-290.87,396.36-291.12,396.36
		z M-291.14,402.28c-0.24,0-0.48,0-0.72,0c-0.18,0-0.33,0.04-0.4,0.22c-0.07,0.19,0.03,0.31,0.17,0.42
		c0.43,0.33,0.84,0.68,1.27,1.01c0.09,0.07,0.12,0.14,0.08,0.26c-0.18,0.5-0.34,1.01-0.51,1.52c-0.06,0.18-0.07,0.34,0.1,0.46
		c0.17,0.12,0.32,0.05,0.46-0.07c0.41-0.33,0.83-0.66,1.23-0.99c0.1-0.08,0.16-0.08,0.26,0c0.41,0.34,0.83,0.67,1.25,1.01
		c0.14,0.11,0.29,0.17,0.45,0.06c0.16-0.11,0.17-0.26,0.11-0.44c-0.17-0.5-0.33-1.01-0.51-1.52c-0.05-0.14-0.02-0.21,0.09-0.29
		c0.43-0.33,0.85-0.67,1.27-1.01c0.13-0.11,0.22-0.23,0.15-0.41c-0.06-0.17-0.2-0.22-0.38-0.22c-0.5,0-1,0-1.5,0
		c-0.12,0-0.18-0.03-0.22-0.15c-0.16-0.51-0.34-1.01-0.5-1.52c-0.06-0.17-0.14-0.3-0.34-0.3c-0.2,0-0.28,0.13-0.34,0.3
		c-0.16,0.49-0.33,0.97-0.48,1.46c-0.05,0.17-0.14,0.22-0.3,0.21C-290.67,402.27-290.91,402.28-291.14,402.28z M-282.41,405.9
		c0.96,0,1.92,0,2.88,0c0.29,0,0.41-0.12,0.41-0.41c0-0.6,0-1.21,0-1.81c0-0.29-0.12-0.41-0.41-0.41c-1.92,0-3.84,0-5.75,0
		c-0.3,0-0.41,0.12-0.41,0.41c0,0.6,0,1.19,0,1.79c0,0.32,0.11,0.43,0.43,0.43C-284.32,405.9-283.37,405.9-282.41,405.9z"/>
	<path class="st0" d="M-290.27,393.04c0.01,0.01,0.03,0.01,0.04,0.02c0.21-0.17,0.43-0.34,0.64-0.51c0.22-0.17,0.32-0.17,0.55,0
		c0.22,0.17,0.43,0.34,0.65,0.51c-0.05-0.27-0.13-0.51-0.21-0.76c-0.09-0.28-0.07-0.36,0.17-0.55c0.26-0.21,0.51-0.41,0.81-0.65
		c-0.32,0-0.59,0-0.86,0c-0.38,0-0.42-0.03-0.54-0.39c-0.09-0.27-0.18-0.53-0.27-0.82c-0.03,0.04-0.05,0.04-0.05,0.05
		c-0.09,0.26-0.17,0.52-0.26,0.78c-0.11,0.33-0.17,0.37-0.51,0.37c-0.28,0-0.55,0-0.88,0c0.26,0.21,0.47,0.38,0.69,0.55
		c0.4,0.32,0.4,0.32,0.24,0.8C-290.14,392.65-290.21,392.84-290.27,393.04z"/>
	<path class="st0" d="M-289.29,401.75c-0.01,0-0.03,0-0.04,0c-0.1,0.29-0.21,0.59-0.3,0.88c-0.07,0.22-0.2,0.31-0.42,0.31
		c-0.3-0.01-0.59,0-0.95,0c0.3,0.24,0.56,0.45,0.82,0.66c0.22,0.18,0.25,0.26,0.16,0.53c-0.08,0.25-0.17,0.5-0.25,0.74
		c0.26-0.16,0.47-0.33,0.69-0.5c0.21-0.16,0.32-0.16,0.53,0c0.22,0.17,0.44,0.35,0.66,0.52c-0.05-0.26-0.13-0.51-0.21-0.75
		c-0.09-0.28-0.07-0.36,0.16-0.55c0.26-0.21,0.52-0.41,0.78-0.63c-0.03-0.02-0.05-0.03-0.06-0.03c-0.27,0-0.53,0-0.8,0
		c-0.33,0-0.39-0.05-0.5-0.36C-289.11,402.3-289.2,402.03-289.29,401.75z"/>
	<path d="M-275.19,392.1c0,0.43,0,0.85,0,1.29c-3.27,0-6.55,0-9.84,0c0-0.42,0-0.85,0-1.29C-281.75,392.1-278.48,392.1-275.19,392.1
		z"/>
	<path d="M-285.03,399.31c0-0.44,0-0.86,0-1.29c2.62,0,5.24,0,7.86,0c0,0.42,0,0.85,0,1.29
		C-279.78,399.31-282.4,399.31-285.03,399.31z"/>
	<path d="M-290.27,393.04c0.06-0.19,0.13-0.39,0.19-0.58c0.16-0.48,0.16-0.48-0.24-0.8c-0.21-0.17-0.43-0.34-0.69-0.55
		c0.33,0,0.61,0,0.88,0c0.35,0,0.4-0.04,0.51-0.37c0.09-0.26,0.17-0.52,0.26-0.78c0-0.01,0.02-0.02,0.05-0.05
		c0.09,0.28,0.18,0.55,0.27,0.82c0.12,0.36,0.17,0.39,0.54,0.39c0.27,0,0.53,0,0.86,0c-0.3,0.24-0.55,0.45-0.81,0.65
		c-0.24,0.19-0.26,0.27-0.17,0.55c0.08,0.24,0.16,0.49,0.21,0.76c-0.22-0.17-0.43-0.34-0.65-0.51c-0.22-0.17-0.33-0.17-0.55,0
		c-0.21,0.17-0.43,0.34-0.64,0.51C-290.24,393.05-290.26,393.04-290.27,393.04z"/>
	<path d="M-287.65,397.04c-0.29,0.23-0.55,0.45-0.82,0.65c-0.17,0.13-0.22,0.28-0.15,0.48c0.09,0.25,0.17,0.51,0.22,0.79
		c-0.22-0.17-0.43-0.35-0.65-0.52c-0.22-0.17-0.32-0.17-0.55,0c-0.21,0.17-0.43,0.34-0.68,0.49c0.08-0.23,0.15-0.47,0.23-0.7
		c0.11-0.33,0.09-0.38-0.17-0.6c-0.25-0.2-0.5-0.4-0.8-0.64c0.34,0,0.63,0,0.92,0c0.29,0,0.36-0.05,0.45-0.32
		c0.1-0.29,0.2-0.58,0.34-0.87c0.09,0.27,0.18,0.55,0.27,0.82c0.11,0.33,0.17,0.37,0.52,0.37c0.26,0,0.52,0,0.78,0
		C-287.71,397.02-287.7,397.03-287.65,397.04z"/>
	<path d="M-289.29,401.75c0.09,0.27,0.18,0.55,0.27,0.82c0.11,0.32,0.17,0.36,0.5,0.36c0.27,0,0.53,0,0.8,0
		c0.01,0,0.02,0.01,0.06,0.03c-0.27,0.21-0.53,0.42-0.78,0.63c-0.23,0.19-0.25,0.26-0.16,0.55c0.08,0.24,0.16,0.49,0.21,0.75
		c-0.22-0.17-0.44-0.35-0.66-0.52c-0.21-0.17-0.32-0.17-0.53,0c-0.22,0.17-0.44,0.35-0.69,0.5c0.08-0.25,0.17-0.5,0.25-0.74
		c0.09-0.27,0.06-0.35-0.16-0.53c-0.26-0.21-0.52-0.42-0.82-0.66c0.35,0,0.65-0.01,0.95,0c0.22,0.01,0.36-0.09,0.42-0.31
		c0.09-0.3,0.2-0.59,0.3-0.88C-289.32,401.75-289.31,401.75-289.29,401.75z"/>
	<path d="M-285.03,405.23c0-0.43,0-0.86,0-1.29c1.75,0,3.49,0,5.24,0c0,0.43,0,0.85,0,1.29
		C-281.54,405.23-283.28,405.23-285.03,405.23z"/>
</g>
</svg>
