<?xml version="1.0" encoding="utf-8"?>
<!-- Generator: Adobe Illustrator 23.0.1, SVG Export Plug-In . SVG Version: 6.00 Build 0)  -->
<svg version="1.1" id="Layer_1" xmlns="http://www.w3.org/2000/svg" xmlns:xlink="http://www.w3.org/1999/xlink" x="0px" y="0px"
	 viewBox="-294 386.7 21.2 21.3" style="enable-background:new -294 386.7 21.2 21.3;" xml:space="preserve">
<g>
	<path d="M-282.71,388.46c0.07,0.2,0.12,0.4,0.2,0.6c0.03,0.06,0.1,0.13,0.16,0.16c0.3,0.13,0.61,0.26,0.92,0.38
		c0.07,0.03,0.17,0.03,0.24,0c0.14-0.05,0.28-0.13,0.41-0.21c0.1-0.06,0.16-0.06,0.25,0.03c0.25,0.27,0.52,0.53,0.78,0.79
		c0.07,0.07,0.1,0.13,0.03,0.21c-0.28,0.36-0.29,0.71-0.03,1.08c0.09,0.13,0.13,0.31,0.17,0.47c0.03,0.13,0.1,0.19,0.22,0.22
		c0.14,0.03,0.28,0.1,0.42,0.13c0.11,0.03,0.13,0.09,0.13,0.19c-0.01,0.37-0.01,0.74,0,1.11c0,0.1-0.02,0.16-0.13,0.17
		c-0.02,0-0.05,0.02-0.07,0.02c-0.37,0.06-0.63,0.23-0.67,0.63c-0.01,0.12-0.09,0.15-0.2,0.14c-0.14-0.01-0.29,0-0.46,0
		c0-0.57,0-1.12,0-1.67c0-0.55,0-1.11,0-1.68c-0.4,0-0.8,0-1.22,0c0,1.11,0,2.22,0,3.34c-0.41,0-0.81,0-1.22,0c0-1.52,0-3.04,0-4.57
		c-0.42,0-0.82,0-1.23,0c0,1.52,0,3.04,0,4.57c-0.41,0-0.81,0-1.22,0c0-0.91,0-1.82,0-2.74c-0.42,0-0.82,0-1.23,0
		c0,0.91,0,1.81,0,2.74c-0.19,0-0.36,0-0.54,0c-0.03,0-0.07-0.04-0.1-0.07c-0.02-0.02-0.03-0.06-0.03-0.09
		c-0.04-0.39-0.29-0.56-0.65-0.61c-0.18-0.03-0.23-0.13-0.22-0.3c0.02-0.34,0.01-0.68,0-1.01c0-0.1,0.02-0.17,0.13-0.19
		c0.44-0.05,0.69-0.29,0.77-0.74c0.03-0.15,0.12-0.3,0.2-0.43c0.09-0.14,0.08-0.25,0-0.38c-0.09-0.15-0.22-0.33-0.2-0.48
		c0.02-0.14,0.22-0.25,0.34-0.37c0.17-0.17,0.34-0.33,0.5-0.5c0.07-0.08,0.14-0.11,0.23-0.04c0.35,0.27,0.7,0.29,1.07,0.03
		c0.08-0.06,0.19-0.1,0.28-0.11c0.3-0.04,0.43-0.21,0.48-0.49c0.02-0.12,0.07-0.23,0.11-0.34
		C-283.63,388.46-283.17,388.46-282.71,388.46z"/>
	<path d="M-273.9,391.11c-0.09,0.16-0.16,0.34-0.29,0.46c-0.42,0.43-1.13,0.32-1.43-0.21c-0.06-0.11-0.12-0.14-0.23-0.14
		c-0.87,0-1.75,0-2.63,0c0-0.2,0-0.4,0-0.61c0.07,0,0.14,0,0.2,0c0.81,0,1.62,0,2.43,0c0.07,0,0.17-0.04,0.21-0.1
		c0.2-0.35,0.5-0.53,0.9-0.5c0.41,0.03,0.68,0.27,0.81,0.66c0.01,0.02,0.02,0.04,0.04,0.06C-273.9,390.85-273.9,390.98-273.9,391.11
		z"/>
	<path d="M-273.9,395.39c-0.09,0.16-0.16,0.34-0.29,0.46c-0.42,0.43-1.13,0.32-1.43-0.21c-0.06-0.11-0.12-0.14-0.23-0.14
		c-0.87,0-1.75,0-2.63,0c0-0.2,0-0.4,0-0.61c0.07,0,0.14,0,0.2,0c0.81,0,1.62,0,2.43,0c0.07,0,0.17-0.04,0.21-0.1
		c0.2-0.35,0.5-0.53,0.9-0.5c0.41,0.03,0.68,0.27,0.81,0.66c0.01,0.02,0.02,0.04,0.04,0.06C-273.9,395.14-273.9,395.27-273.9,395.39
		z"/>
	<path d="M-292.9,390.72c0.09-0.15,0.15-0.33,0.27-0.45c0.42-0.45,1.14-0.34,1.44,0.2c0.06,0.11,0.12,0.14,0.23,0.14
		c0.87,0,1.75,0,2.63,0c0,0.2,0,0.4,0,0.61c-0.07,0-0.14,0-0.2,0c-0.81,0-1.62,0-2.43,0c-0.07,0-0.18,0.04-0.21,0.1
		c-0.2,0.35-0.5,0.54-0.9,0.5c-0.41-0.03-0.68-0.27-0.81-0.66c-0.01-0.02-0.02-0.04-0.04-0.06
		C-292.9,390.98-292.9,390.85-292.9,390.72z"/>
	<path d="M-292.9,395.01c0.09-0.15,0.15-0.33,0.27-0.45c0.42-0.45,1.14-0.34,1.44,0.2c0.06,0.11,0.12,0.14,0.23,0.14
		c0.87,0,1.75,0,2.63,0c0,0.2,0,0.4,0,0.61c-0.07,0-0.14,0-0.2,0c-0.81,0-1.62,0-2.43,0c-0.07,0-0.18,0.04-0.21,0.1
		c-0.2,0.35-0.5,0.54-0.9,0.5c-0.41-0.03-0.68-0.27-0.81-0.66c-0.01-0.02-0.02-0.04-0.04-0.06
		C-292.9,395.27-292.9,395.14-292.9,395.01z"/>
	<path d="M-276.98,396.12c0,2.15,0,4.28,0,6.42c-4.28,0-8.56,0-12.85,0c0-2.13,0-4.27,0-6.42c0.39,0,0.78,0,1.17,0
		c0.32,0,0.67-0.08,0.95,0.03c0.27,0.11,0.46,0.41,0.68,0.64c0.22,0.22,0.45,0.44,0.66,0.66c0.07,0.07,0.13,0.1,0.21,0.04
		c0.04-0.03,0.08-0.04,0.12-0.06c0.57-0.29,0.57-0.29,1.15-0.03c0.05,0.02,0.1,0.1,0.12,0.15c0.08,0.23,0.16,0.47,0.23,0.71
		c0.76,0,1.52,0,2.28,0c0.08-0.23,0.15-0.47,0.23-0.7c0.02-0.05,0.05-0.12,0.1-0.15c0.18-0.09,0.37-0.17,0.56-0.23
		c0.05-0.02,0.12,0.01,0.17,0.03c0.22,0.11,0.43,0.22,0.67,0.34c0.26-0.26,0.52-0.52,0.78-0.78c0.22-0.22,0.4-0.51,0.67-0.62
		c0.26-0.11,0.59-0.03,0.89-0.03C-277.79,396.12-277.38,396.12-276.98,396.12z M-288.9,398.58c0,1.03,0,2.04,0,3.04
		c1.23,0,2.44,0,3.65,0c0-1.02,0-2.03,0-3.04C-286.47,398.58-287.68,398.58-288.9,398.58z M-277.59,398.89c-2.25,0-4.49,0-6.72,0
		c0,0.2,0,0.39,0,0.59c2.24,0,4.48,0,6.72,0C-277.59,399.28-277.59,399.09-277.59,398.89z M-277.59,401.34c-2.25,0-4.48,0-6.72,0
		c0,0.21,0,0.4,0,0.59c2.25,0,4.48,0,6.72,0C-277.59,401.74-277.59,401.55-277.59,401.34z M-278.81,400.12c-1.84,0-3.67,0-5.49,0
		c0,0.21,0,0.4,0,0.59c1.84,0,3.66,0,5.49,0C-278.81,400.51-278.81,400.32-278.81,400.12z M-277.59,400.12c-0.21,0-0.4,0-0.59,0
		c0,0.21,0,0.4,0,0.59c0.2,0,0.39,0,0.59,0C-277.59,400.51-277.59,400.32-277.59,400.12z"/>
	<path d="M-274.52,404.41c0,0.35,0.02,0.69-0.01,1.02c-0.04,0.45-0.43,0.79-0.88,0.8c-0.05,0-0.1,0-0.15,0c-5.23,0-10.45,0-15.68,0
		c-0.25,0-0.48-0.04-0.68-0.19c-0.2-0.15-0.33-0.35-0.35-0.6c-0.02-0.34-0.01-0.69-0.01-1.04c0.07,0,0.13-0.01,0.19-0.01
		c1.95,0,3.91,0,5.86,0c0.14,0,0.21,0.05,0.27,0.17c0.14,0.31,0.3,0.6,0.45,0.91c0.05,0.1,0.11,0.15,0.23,0.15
		c1.25-0.01,2.5,0,3.75,0c0.11,0,0.17-0.03,0.22-0.13c0.16-0.33,0.32-0.65,0.49-0.97c0.03-0.06,0.12-0.12,0.18-0.12
		c2.01-0.01,4.02,0,6.03,0C-274.58,404.4-274.56,404.4-274.52,404.41z M-278.79,405.02c0,0.21,0,0.4,0,0.59c0.21,0,0.4,0,0.59,0
		c0-0.2,0-0.39,0-0.59C-278.4,405.02-278.59,405.02-278.79,405.02z M-277.57,405.02c0,0.21,0,0.4,0,0.59c0.21,0,0.4,0,0.59,0
		c0-0.2,0-0.39,0-0.59C-277.18,405.02-277.36,405.02-277.57,405.02z M-276.35,405.61c0.21,0,0.4,0,0.59,0c0-0.21,0-0.4,0-0.59
		c-0.2,0-0.39,0-0.59,0C-276.35,405.22-276.35,405.41-276.35,405.61z"/>
	<path d="M-290.45,396.13c0,0.09,0,0.16,0,0.24c0,2.02,0,4.05,0,6.07c0,0.51,0.22,0.73,0.74,0.73c4.2,0,8.41,0,12.61,0
		c0.52,0,0.74-0.22,0.74-0.75c0-2.02,0-4.03,0-6.05c0-0.08,0-0.15,0-0.22c0.34-0.07,0.61,0.14,0.61,0.47c0,2.32,0,4.63,0,6.95
		c0,0.06,0,0.13,0,0.2c-5.1,0-10.2,0-15.32,0c0-0.07,0-0.14,0-0.22c0-2.29,0-4.58,0-6.87
		C-291.06,396.31-290.84,396.11-290.45,396.13z"/>
	<path d="M-283.39,395.2c1.08,0,2.16,0,3.23,0c0.13,0,0.2,0.03,0.26,0.15c0.23,0.46,0.23,0.46-0.13,0.82
		c-0.17,0.17-0.35,0.34-0.51,0.52c-0.07,0.07-0.14,0.11-0.23,0.04c-0.35-0.27-0.7-0.29-1.07-0.03c-0.13,0.09-0.3,0.13-0.46,0.17
		c-0.15,0.03-0.21,0.11-0.24,0.25c-0.05,0.18-0.07,0.41-0.2,0.5c-0.11,0.09-0.34,0.03-0.52,0.03c-0.24,0-0.47,0-0.71,0
		c-0.1,0-0.16-0.03-0.17-0.13c-0.06-0.45-0.3-0.7-0.75-0.79c-0.17-0.03-0.32-0.15-0.49-0.22c-0.07-0.03-0.17-0.03-0.24,0
		c-0.19,0.07-0.38,0.26-0.55,0.23c-0.17-0.03-0.3-0.26-0.44-0.4c-0.15-0.15-0.29-0.3-0.45-0.45c-0.07-0.07-0.08-0.12-0.03-0.21
		c0.24-0.49,0.24-0.49,0.78-0.49C-285.33,395.2-284.36,395.2-283.39,395.2z"/>
	<path d="M-278.19,393.37c0-0.21,0-0.4,0-0.6c0.05-0.01,0.1-0.01,0.15-0.01c0.26,0,0.52-0.01,0.78,0c0.21,0.01,0.36-0.02,0.49-0.24
		c0.2-0.35,0.65-0.46,1.03-0.33c0.38,0.13,0.62,0.5,0.61,0.9c-0.01,0.4-0.29,0.74-0.68,0.85c-0.39,0.11-0.8-0.05-1-0.4
		c-0.08-0.14-0.17-0.18-0.33-0.18C-277.48,393.37-277.83,393.37-278.19,393.37z"/>
	<path d="M-288.62,392.76c0,0.2,0,0.39,0,0.6c-0.34,0-0.68,0.01-1.03,0c-0.16,0-0.26,0.02-0.35,0.18c-0.2,0.36-0.63,0.51-1.02,0.4
		c-0.39-0.11-0.66-0.48-0.66-0.89c0-0.41,0.28-0.77,0.67-0.88c0.4-0.11,0.82,0.04,1.02,0.41c0.08,0.14,0.16,0.18,0.31,0.17
		c0.33-0.01,0.66,0,0.99,0C-288.66,392.75-288.65,392.76-288.62,392.76z"/>
	<path d="M-281.45,404.41c-0.09,0.19-0.17,0.36-0.27,0.53c-0.02,0.04-0.1,0.07-0.15,0.07c-1.02,0-2.04,0-3.06,0
		c-0.05,0-0.12-0.02-0.14-0.06c-0.1-0.17-0.18-0.35-0.27-0.54C-284.04,404.41-282.77,404.41-281.45,404.41z"/>
</g>
</svg>
