<?xml version="1.0" encoding="utf-8"?>
<!-- Generator: Adobe Illustrator 21.0.0, SVG Export Plug-In . SVG Version: 6.00 Build 0)  -->
<svg version="1.1" id="Layer_1" xmlns="http://www.w3.org/2000/svg" xmlns:xlink="http://www.w3.org/1999/xlink" x="0px" y="0px"
	 viewBox="0 0 200 200" style="enable-background:new 0 0 200 200;" xml:space="preserve">
<path d="M185.4,193.4c-56.6,0-113.2,0-169.8,0c-3.8-1.3-6.3-3.8-7.6-7.6C8,129.2,8,72.6,8,16c1.3-3.8,3.8-6.3,7.6-7.6
	c56.6,0,113.2,0,169.8,0c3.8,1.3,6.3,3.8,7.6,7.6c0,56.6,0,113.2,0,169.8C191.7,189.6,189.2,192.1,185.4,193.4z M132.4,69
	c16.7,0,33.4,0,50,0c3.1,0,4.2-1.1,4.2-4.2c0-5.8,0-11.6,0-17.3c0-2.9-1.1-4-4-4c-33.5,0-67,0-100.5,0c-2.9,0-4,1.1-4,4
	c0,5.6,0,11.3,0,16.9c0,3.7,0.9,4.6,4.6,4.6C99.3,69,115.9,69,132.4,69z M122.6,126.4c13.6,0,27.2,0,40.9,0c2.9,0,4-1.1,4-4
	c0-5.8,0-11.7,0-17.5c0-2.9-1.1-4-4-4c-27.1,0-54.2,0-81.3,0c-2.9,0-4,1.1-4,4c0,5.7,0,11.4,0,17.1c0,3.4,1,4.4,4.4,4.4
	C95.9,126.4,109.3,126.4,122.6,126.4z M25.5,33.9c-2.4,0-4.8,0-7.2,0c-1.8,0-3.2,0.5-3.8,2.3c-0.5,1.7,0.4,2.9,1.7,3.9
	c4,3.1,7.9,6.3,11.9,9.4c1.3,1,1.7,1.8,1.1,3.5c-1.7,4.7-3.2,9.4-4.8,14.1c-0.6,1.7-0.7,3.3,0.9,4.5c1.7,1.2,3.1,0.5,4.5-0.6
	c3.9-3.1,7.8-6.2,11.6-9.4c1.2-1,1.9-1.1,3.2-0.1c3.9,3.2,7.9,6.3,11.8,9.5c1.4,1.1,2.8,1.7,4.3,0.6c1.7-1.1,1.6-2.7,1-4.4
	c-1.7-4.8-3.2-9.7-4.9-14.5c-0.4-1.3-0.3-2,0.8-2.8c4.1-3.2,8.2-6.5,12.3-9.8c1.3-1,2.1-2.2,1.5-4c-0.6-1.7-1.9-2.2-3.6-2.2
	c-4.8,0-9.6-0.1-14.4,0.1c-1.5,0-2.1-0.5-2.5-1.8c-1.5-4.8-3.2-9.6-4.7-14.4c-0.5-1.7-1.4-2.9-3.3-3c-1.9,0-2.8,1.2-3.3,2.9
	c-1.6,4.9-3.3,9.8-4.9,14.7c-0.4,1.1-0.9,1.6-2.1,1.5C30.4,33.8,27.9,33.9,25.5,33.9z M25.6,91.3c-2.5,0-4.9,0-7.4,0
	c-1.7,0-3,0.5-3.6,2.2c-0.6,1.7,0.2,2.9,1.5,3.9c4,3.2,8,6.4,12,9.5c1.2,0.9,1.6,1.7,1.1,3.3c-1.7,4.7-3.2,9.6-4.8,14.3
	c-0.6,1.7-0.6,3.3,1,4.4c1.6,1.1,3,0.5,4.3-0.6c3.8-3.1,7.7-6.1,11.5-9.2c1.4-1.1,2.2-1.3,3.6-0.1c3.8,3.2,7.8,6.3,11.6,9.4
	c1.4,1.1,2.8,1.6,4.4,0.5c1.5-1.1,1.6-2.6,1-4.3c-1.7-4.8-3.2-9.7-4.9-14.5c-0.5-1.3-0.3-2.1,0.9-3c4.1-3.2,8.1-6.5,12.2-9.7
	c1.3-1,2.2-2.2,1.6-3.9c-0.6-1.8-2-2.3-3.8-2.3c-4.8,0-9.6-0.1-14.4,0.1c-1.4,0-2-0.5-2.4-1.7c-1.5-4.7-3.1-9.4-4.7-14.2
	c-0.6-1.8-1.3-3.3-3.5-3.2c-2,0-2.8,1.5-3.3,3.2c-1.6,4.9-3.3,9.7-4.8,14.5c-0.3,1.1-0.8,1.5-1.9,1.4C30.5,91.3,28,91.3,25.6,91.3z
	 M25.4,148.7c-2.3,0-4.7,0-7,0c-1.7,0-3.2,0.4-3.9,2.2c-0.6,1.8,0.3,3,1.6,4.1c4.1,3.2,8.2,6.6,12.3,9.8c0.9,0.7,1.2,1.4,0.8,2.5
	c-1.7,4.9-3.3,9.8-4.9,14.7c-0.6,1.7-0.7,3.3,1,4.4c1.7,1.2,3.1,0.4,4.5-0.7c4-3.2,8-6.4,12-9.6c1-0.8,1.6-0.8,2.5,0
	c4,3.3,8.1,6.5,12.1,9.8c1.4,1.1,2.8,1.6,4.3,0.5c1.5-1.1,1.6-2.6,1-4.3c-1.7-4.9-3.2-9.8-4.9-14.7c-0.5-1.3-0.2-2,0.9-2.8
	c4.1-3.2,8.2-6.5,12.3-9.8c1.3-1,2.1-2.3,1.5-4c-0.6-1.7-2-2.1-3.7-2.1c-4.9,0-9.7,0-14.6,0c-1.2,0-1.7-0.3-2.1-1.5
	c-1.6-4.9-3.3-9.8-4.9-14.7c-0.5-1.7-1.4-2.9-3.3-2.9c-1.9,0-2.7,1.3-3.3,2.9c-1.5,4.7-3.2,9.4-4.7,14.2c-0.5,1.7-1.3,2.1-2.9,2
	C29.9,148.6,27.7,148.7,25.4,148.7z M110.1,183.8c9.3,0,18.6,0,27.9,0c2.9,0,4-1.1,4-4c0-5.8,0-11.7,0-17.5c0-2.9-1.1-4-4-4
	c-18.6,0-37.2,0-55.8,0c-2.9,0-4,1.1-4,4c0,5.8,0,11.6,0,17.3c0,3.1,1.1,4.2,4.2,4.2C91.6,183.8,100.8,183.8,110.1,183.8z"/>
<path d="M180.1,50c0,4.2,0,8.3,0,12.5c-31.8,0-63.5,0-95.5,0c0-4.1,0-8.2,0-12.5C116.5,50,148.3,50,180.1,50z"/>
<path d="M84.6,119.9c0-4.2,0-8.3,0-12.5c25.4,0,50.8,0,76.3,0c0,4.1,0,8.3,0,12.5C135.6,119.9,110.2,119.9,84.6,119.9z"/>
<path d="M33.8,59c0.6-1.9,1.2-3.7,1.8-5.6c1.6-4.7,1.6-4.7-2.3-7.8c-2.1-1.6-4.1-3.3-6.7-5.3c3.2,0,5.9,0,8.6,0c3.4,0,3.9-0.4,5-3.6
	c0.8-2.5,1.7-5,2.5-7.5c0-0.1,0.2-0.2,0.5-0.5c0.9,2.7,1.8,5.3,2.7,7.9c1.2,3.5,1.6,3.8,5.3,3.8c2.6,0,5.2,0,8.3,0
	c-2.9,2.3-5.4,4.3-7.9,6.3c-2.3,1.8-2.5,2.6-1.6,5.3c0.8,2.4,1.6,4.7,2.1,7.3c-2.1-1.7-4.2-3.3-6.3-5c-2.1-1.7-3.2-1.7-5.3,0
	c-2.1,1.6-4.1,3.3-6.2,5C34.1,59.2,34,59.1,33.8,59z"/>
<path d="M59.2,97.9c-2.8,2.2-5.3,4.3-8,6.4c-1.7,1.3-2.1,2.7-1.4,4.7c0.9,2.5,1.7,5,2.2,7.7c-2.1-1.7-4.2-3.3-6.3-5
	c-2.1-1.7-3.2-1.7-5.3,0c-2.1,1.6-4.1,3.3-6.6,4.8c0.7-2.3,1.5-4.5,2.2-6.8c1.1-3.2,0.9-3.7-1.7-5.8c-2.4-1.9-4.8-3.9-7.7-6.2
	c3.3,0,6.1,0,9,0c2.8,0,3.5-0.5,4.4-3.1c1-2.8,1.9-5.6,3.3-8.5c0.9,2.7,1.8,5.3,2.7,8c1.1,3.2,1.6,3.6,5,3.6c2.5,0,5,0,7.6,0
	C58.7,97.7,58.8,97.8,59.2,97.9z"/>
<path d="M43.3,143.6c0.9,2.7,1.8,5.3,2.7,8c1,3.1,1.6,3.5,4.9,3.5c2.6,0,5.2,0,7.8,0c0.1,0,0.2,0.1,0.5,0.3
	c-2.6,2.1-5.1,4.1-7.6,6.1c-2.2,1.8-2.5,2.6-1.5,5.3c0.8,2.4,1.6,4.7,2,7.3c-2.1-1.7-4.2-3.4-6.4-5c-2.1-1.6-3.1-1.6-5.1,0
	c-2.1,1.7-4.2,3.4-6.7,4.9c0.8-2.4,1.6-4.8,2.4-7.2c0.9-2.6,0.6-3.4-1.5-5.2c-2.5-2-5-4-8-6.4c3.4,0,6.3-0.1,9.2,0
	c2.2,0.1,3.5-0.9,4.1-3c0.9-2.9,1.9-5.7,2.9-8.6C43,143.6,43.2,143.6,43.3,143.6z"/>
<path d="M84.6,177.3c0-4.2,0-8.3,0-12.5c17,0,33.9,0,50.9,0c0,4.2,0,8.3,0,12.5C118.6,177.3,101.7,177.3,84.6,177.3z"/>
</svg>
