<?xml version="1.0" encoding="utf-8"?>
<!-- Generator: Adobe Illustrator 21.0.0, SVG Export Plug-In . SVG Version: 6.00 Build 0)  -->
<svg version="1.1" id="Layer_1" xmlns="http://www.w3.org/2000/svg" xmlns:xlink="http://www.w3.org/1999/xlink" x="0px" y="0px"
	 viewBox="0 0 200 200" style="enable-background:new 0 0 200 200;" xml:space="preserve">
<path d="M106.8,10.2c0.6,2,1.2,4,2,5.9c0.3,0.6,0.9,1.3,1.6,1.5c3,1.3,6,2.6,9.1,3.7c0.7,0.3,1.7,0.3,2.4,0c1.4-0.5,2.7-1.3,4-2
	c0.9-0.6,1.6-0.6,2.4,0.3c2.5,2.7,5.1,5.2,7.8,7.8c0.7,0.7,1,1.3,0.3,2.1c-2.8,3.5-2.8,7-0.2,10.7c0.9,1.3,1.3,3,1.7,4.6
	c0.3,1.3,1,1.9,2.2,2.2c1.4,0.3,2.7,1,4.1,1.3c1.1,0.3,1.3,0.8,1.3,1.9c-0.1,3.7-0.1,7.3,0,11c0,1-0.2,1.6-1.2,1.7
	c-0.2,0-0.5,0.2-0.7,0.2c-3.7,0.6-6.2,2.3-6.7,6.3c-0.1,1.2-0.9,1.5-2,1.4c-1.4-0.1-2.9,0-4.5,0c0-5.6,0-11.1,0-16.6
	c0-5.5,0-11,0-16.6c-4,0-7.9,0-12.1,0c0,11,0,22,0,33.1c-4.1,0-8,0-12.1,0c0-15,0-30,0-45.2c-4.1,0-8.1,0-12.2,0
	c0,15.1,0,30.1,0,45.2c-4.1,0-8,0-12.1,0c0-9,0-18,0-27.1c-4.1,0-8.1,0-12.1,0c0,9,0,17.9,0,27.2c-1.9,0-3.6,0-5.3,0
	c-0.3,0-0.7-0.4-1-0.7c-0.2-0.2-0.3-0.6-0.3-0.9c-0.4-3.9-2.9-5.5-6.4-6c-1.8-0.3-2.2-1.2-2.2-3c0.2-3.3,0.1-6.7,0-10
	c0-1,0.2-1.7,1.3-1.8c4.4-0.5,6.9-2.9,7.6-7.3c0.3-1.5,1.1-2.9,2-4.3c0.9-1.4,0.8-2.5,0-3.8c-0.9-1.5-2.2-3.3-2-4.7
	c0.2-1.4,2.1-2.5,3.3-3.7c1.6-1.7,3.3-3.3,4.9-5c0.7-0.8,1.4-1.1,2.3-0.4c3.5,2.7,6.9,2.9,10.5,0.3c0.8-0.6,1.8-1,2.8-1.1
	c2.9-0.4,4.3-2.1,4.8-4.9c0.2-1.2,0.7-2.3,1.1-3.4C97.7,10.2,102.3,10.2,106.8,10.2z"/>
<path d="M194,36.3c-0.9,1.5-1.6,3.3-2.8,4.6c-4.2,4.3-11.2,3.2-14.1-2.1c-0.6-1.1-1.2-1.4-2.3-1.3c-8.6,0-17.3,0-26.1,0
	c0-2,0-3.9,0-6.1c0.7,0,1.3,0,2,0c8,0,16,0,24,0c0.7,0,1.7-0.4,2.1-1c2-3.4,4.9-5.3,8.9-5c4,0.3,6.7,2.7,8,6.5
	c0.1,0.2,0.2,0.4,0.4,0.6C194,33.8,194,35.1,194,36.3z"/>
<path d="M194,78.8c-0.9,1.5-1.6,3.3-2.8,4.6c-4.2,4.3-11.2,3.2-14.1-2.1c-0.6-1.1-1.2-1.4-2.3-1.3c-8.6,0-17.3,0-26.1,0
	c0-2,0-3.9,0-6.1c0.7,0,1.3,0,2,0c8,0,16,0,24,0c0.7,0,1.7-0.4,2.1-1c2-3.4,4.9-5.3,8.9-5c4,0.3,6.7,2.7,8,6.5
	c0.1,0.2,0.2,0.4,0.4,0.6C194,76.3,194,77.5,194,78.8z"/>
<path d="M6,32.6c0.9-1.5,1.5-3.2,2.7-4.4c4.2-4.4,11.3-3.4,14.3,2c0.6,1.1,1.2,1.4,2.3,1.4c8.6,0,17.3,0,26.1,0c0,2,0,3.9,0,6.1
	c-0.7,0-1.3,0-2,0c-8,0-16,0-24,0c-0.7,0-1.7,0.4-2.1,1c-2,3.4-4.9,5.3-8.9,5c-4-0.3-6.7-2.6-8-6.5c-0.1-0.2-0.2-0.4-0.4-0.6
	C6,35.1,6,33.8,6,32.6z"/>
<path d="M6,75c0.9-1.5,1.5-3.2,2.7-4.4c4.2-4.4,11.3-3.4,14.3,2c0.6,1.1,1.2,1.4,2.3,1.4c8.6,0,17.3,0,26.1,0c0,2,0,3.9,0,6.1
	c-0.7,0-1.3,0-2,0c-8,0-16,0-24,0c-0.7,0-1.7,0.4-2.1,1c-2,3.4-4.9,5.3-8.9,5c-4-0.3-6.7-2.6-8-6.5C6.3,79.2,6.1,79,6,78.8
	C6,77.5,6,76.3,6,75z"/>
<path d="M163.6,86c0,21.3,0,42.3,0,63.5c-42.3,0-84.7,0-127.1,0c0-21.1,0-42.2,0-63.5c3.9,0,7.7,0,11.5,0c3.2,0,6.6-0.8,9.4,0.3
	c2.6,1.1,4.5,4.1,6.7,6.3c2.2,2.2,4.4,4.3,6.6,6.6c0.7,0.7,1.3,0.9,2.1,0.4c0.4-0.3,0.8-0.4,1.2-0.6c5.6-2.9,5.6-2.9,11.4-0.3
	c0.5,0.2,1,0.9,1.2,1.5c0.8,2.3,1.6,4.6,2.3,7c7.6,0,15,0,22.6,0c0.8-2.3,1.5-4.7,2.3-7c0.2-0.5,0.5-1.2,1-1.4
	c1.8-0.9,3.7-1.6,5.6-2.3c0.5-0.2,1.2,0.1,1.7,0.3c2.2,1,4.3,2.2,6.6,3.4c2.6-2.6,5.1-5.2,7.7-7.7c2.1-2.1,4-5,6.6-6.1
	c2.5-1.1,5.8-0.3,8.8-0.3C155.6,86,159.5,86,163.6,86z M45.6,110.3c0,10.1,0,20.1,0,30.1c12.2,0,24.2,0,36.1,0c0-10.1,0-20.1,0-30.1
	C69.6,110.3,57.7,110.3,45.6,110.3z M157.5,113.4c-22.3,0-44.4,0-66.5,0c0,2,0,3.9,0,5.8c22.2,0,44.3,0,66.5,0
	C157.5,117.3,157.5,115.4,157.5,113.4z M157.5,137.7c-22.3,0-44.4,0-66.5,0c0,2,0,4,0,5.8c22.2,0,44.3,0,66.5,0
	C157.5,141.5,157.5,139.7,157.5,137.7z M145.4,125.5c-18.2,0-36.3,0-54.3,0c0,2.1,0,4,0,5.8c18.2,0,36.2,0,54.3,0
	C145.4,129.4,145.4,127.5,145.4,125.5z M157.5,125.5c-2,0-4,0-5.8,0c0,2,0,4,0,5.8c2,0,3.9,0,5.8,0
	C157.5,129.4,157.5,127.6,157.5,125.5z"/>
<path d="M187.9,168c0,3.4,0.2,6.8-0.1,10.1c-0.4,4.5-4.2,7.8-8.7,7.9c-0.5,0-1,0-1.5,0c-51.7,0-103.4,0-155.2,0
	c-2.5,0-4.8-0.4-6.8-1.9c-1.9-1.5-3.3-3.5-3.4-5.9c-0.2-3.4-0.1-6.8-0.1-10.3c0.7,0,1.3-0.1,1.9-0.1c19.3,0,38.6,0,58,0
	c1.4,0,2.1,0.5,2.7,1.7c1.4,3,3,6,4.4,9c0.5,1,1.1,1.5,2.3,1.5c12.4,0,24.8,0,37.1,0c1.1,0,1.7-0.3,2.2-1.3c1.5-3.2,3.1-6.5,4.8-9.6
	c0.3-0.6,1.2-1.1,1.8-1.1c19.9-0.1,39.8,0,59.7,0C187.3,167.9,187.5,167.9,187.9,168z M145.6,174c0,2.1,0,4,0,5.8c2,0,3.9,0,5.8,0
	c0-2,0-3.9,0-5.8C149.5,174,147.6,174,145.6,174z M157.7,174c0,2.1,0,4,0,5.8c2,0,4,0,5.8,0c0-2,0-3.9,0-5.8
	C161.6,174,159.7,174,157.7,174z M169.8,179.9c2.1,0,4,0,5.8,0c0-2,0-4,0-5.8c-2,0-3.9,0-5.8,0C169.8,176,169.8,177.9,169.8,179.9z"
	/>
<path d="M30.3,86.1c0,0.9,0,1.6,0,2.4c0,20,0,40,0,60.1c0,5,2.2,7.2,7.3,7.2c41.6,0,83.2,0,124.8,0c5.2,0,7.3-2.2,7.3-7.4
	c0-20,0-39.9,0-59.9c0-0.7,0-1.5,0-2.2c3.4-0.7,6.1,1.4,6.1,4.6c0,22.9,0,45.8,0,68.8c0,0.6,0,1.3,0,2c-50.5,0-100.9,0-151.6,0
	c0-0.7,0-1.4,0-2.2c0-22.7,0-45.3,0-68C24.2,87.8,26.3,85.8,30.3,86.1z"/>
<path d="M100.1,76.9c10.7,0,21.3,0,32,0c1.3,0,2,0.3,2.6,1.5c2.3,4.6,2.3,4.5-1.3,8.2c-1.7,1.7-3.4,3.4-5.1,5.1
	c-0.7,0.7-1.3,1.1-2.2,0.4c-3.4-2.7-6.9-2.9-10.6-0.3c-1.3,0.9-3,1.3-4.6,1.7c-1.5,0.3-2,1.1-2.4,2.5c-0.5,1.7-0.7,4-2,5
	c-1.1,0.9-3.4,0.3-5.2,0.3c-2.3,0-4.7,0-7,0c-1,0-1.6-0.3-1.7-1.3c-0.6-4.4-2.9-6.9-7.4-7.8c-1.7-0.3-3.2-1.5-4.8-2.1
	c-0.7-0.3-1.7-0.3-2.4,0c-1.9,0.7-3.8,2.5-5.4,2.3c-1.6-0.3-3-2.5-4.4-3.9c-1.5-1.5-2.9-3-4.4-4.4c-0.7-0.7-0.8-1.2-0.3-2.1
	c2.4-4.9,2.3-4.9,7.7-4.9C80.9,76.9,90.5,76.9,100.1,76.9z"/>
<path d="M151.6,58.7c0-2.1,0-3.9,0-5.9c0.5,0,1-0.1,1.4-0.1c2.6,0,5.2-0.1,7.8,0c2.1,0.1,3.6-0.2,4.8-2.4c2-3.4,6.5-4.5,10.2-3.2
	c3.7,1.3,6.2,5,6,8.9c-0.1,3.9-2.9,7.4-6.7,8.4c-3.9,1-7.9-0.5-9.9-4c-0.8-1.4-1.7-1.8-3.2-1.8C158.5,58.8,155.1,58.7,151.6,58.7z"
	/>
<path d="M48.4,52.7c0,2,0,3.8,0,6c-3.4,0-6.8,0.1-10.2,0c-1.5,0-2.6,0.2-3.4,1.8c-2,3.6-6.2,5.1-10.1,3.9c-3.9-1.1-6.5-4.7-6.5-8.8
	c0-4,2.7-7.6,6.6-8.7c3.9-1.1,8.1,0.4,10.1,4c0.8,1.4,1.6,1.8,3.1,1.7c3.3-0.1,6.6,0,9.8,0C47.9,52.7,48,52.7,48.4,52.7z"/>
<path d="M119.3,168c-0.9,1.9-1.7,3.6-2.7,5.2c-0.2,0.4-1,0.7-1.5,0.7c-10.1,0-20.2,0-30.3,0c-0.5,0-1.2-0.2-1.4-0.6
	c-1-1.7-1.8-3.4-2.7-5.4C93.6,168,106.3,168,119.3,168z"/>
</svg>
