<?xml version="1.0" encoding="utf-8"?>
<!-- Generator: Adobe Illustrator 21.0.0, SVG Export Plug-In . SVG Version: 6.00 Build 0)  -->
<svg version="1.1" id="Layer_1" xmlns="http://www.w3.org/2000/svg" xmlns:xlink="http://www.w3.org/1999/xlink" x="0px" y="0px"
	 viewBox="0 0 200 200" style="enable-background:new 0 0 200 200;" xml:space="preserve">
<g>
	<path d="M102.6,4.8c3.5,0.4,6.9,0.6,10.4,1.1c11.7,1.6,22.7,5.3,33,11c2.4,1.3,2.7,3.2,1.1,5.4c-3.4,4.6-6.9,9.3-10.4,13.9
		c-2.8,3.8-3.5,7.9-2.2,12.4c0.5,1.7,0.9,3.4,1.4,5c0.9,3.1,1.9,6.2,2.6,9.3c1.4,6,5.3,9,11.3,9.8c2.7,0.4,5.4,0.7,8.1,1.1
		c2.6,0.4,4.4,1.8,5.5,4.2c1.9,4.3,3.9,8.4,5.9,12.7c1.1,2.4,1.1,4.6-0.3,6.9c-1.9,3.2-3.6,6.5-5.3,9.8c-1.8,3.4-1.8,7,0.1,10.4
		c1.7,3,3.5,6,5.5,8.9c4,5.9,8.1,11.8,12.3,17.6c1.3,1.8,1.3,3.4,0.2,5.3c-7.7,12.6-17.6,22.9-29.9,31c-1.4,0.9-2.7,1.6-4.3,0.6
		c-1.6-1.1-1.6-2.6-1.3-4.3c1.6-8.5,3.2-17,4.7-25.5c0.7-3.7-0.3-7-2.9-9.6c-5.8-5.8-11.7-11.5-17.6-17.2c-2.3-2.2-5.2-2.5-8.2-2.5
		c-8-0.1-15.9,0-23.9,0c-3.6,0-6-2.7-5.7-6.1c0.2-1.9,1.2-3.2,2.7-4.3c2.7-1.8,5.3-3.7,8-5.5c3.7-2.5,5.6-6,5.7-10.4
		c0.1-10.7,0.2-21.4,0-32.1c-0.1-5.3-4-9.5-9.1-10.7c-5.3-1.2-10.2,0.8-13,5.4c-0.5,0.8-1,1.6-1.4,2.4c-1.9,4.6-9,4.7-11.4,0.6
		c-0.5-0.9-1.1-1.8-1.6-2.7c-0.8-1.4-1.5-2.7-2.2-4.1c-2.6-5.1-6.5-8.2-12.3-9.2C49.4,44,41,42,32.6,40.3C31.2,40,30,39.4,29.5,38
		c-0.5-1.5,0.2-2.7,1.3-3.8c14.3-14.7,31.6-24,51.8-27.7c3.8-0.7,7.8-0.9,11.7-1.4C95,5,95.8,4.9,96.6,4.8
		C98.6,4.8,100.6,4.8,102.6,4.8z"/>
	<path d="M4,94.8c0.3-2.1,0.5-4.3,0.8-6.4c0.4-3.3,1.9-4.4,5.1-3.6c0.8,0.2,1.5,0.5,2.3,0.6c3.7,0.4,5.6,2.6,6.8,6
		c3.3,9.4,6.7,18.8,10,28.3c1.5,4.2,4.2,7,8.4,8.6c9.9,3.7,19.8,7.5,29.8,11.3c3.5,1.3,4.6,3,4.5,6.8c-0.1,5.1-0.3,10.2-0.4,15.3
		c-0.1,3.8,1.5,6.9,4.3,9.5c6.4,6.1,12.7,12.2,19.1,18.4c2.7,2.6,2.4,4.6-0.8,6.4c-0.5,0-1,0-1.5,0c-0.4-0.1-0.8-0.3-1.2-0.3
		c-10.9-0.9-21.5-3.6-31.3-8.4C29.9,172.9,11.8,149.4,5.5,117c-0.7-3.4-1-6.9-1.5-10.3C4,102.7,4,98.8,4,94.8z"/>
	<path d="M195.2,106.4c-0.5,3.6-0.7,7.3-1.5,10.9c-1.3,5.7-3,11.4-4.6,17.1c-0.4,1.4-1.3,2.4-2.8,2.6c-1.5,0.2-2.5-0.7-3.4-1.9
		c-4.2-6.2-8.5-12.4-12.8-18.6c-1.4-2-1.7-4-0.6-6.2c1.1-2.2,2.4-4.3,3.5-6.6c1.2-2.4,2.3-4.8,3.2-7.3c0.8-2.4,0.5-4.8-0.5-7.1
		c-2.2-4.9-4.6-9.6-6.9-14.5c-2.1-4.5-5.6-6.8-10.5-7.3c-2.7-0.3-5.4-0.8-8.1-1.1c-2.8-0.4-4.7-1.8-5.4-4.6
		c-1.4-5.3-2.8-10.6-4.3-15.8c-0.5-1.7-0.4-3.3,0.7-4.8c3.9-5.4,7.8-10.7,11.9-16.1c1.3-1.7,3-1.7,4.9-0.3
		c11.8,9.1,21,20.3,27.5,33.7c5.4,11,8.5,22.5,9.4,34.7c0,0.5,0.2,1.1,0.3,1.6C195.2,98.6,195.2,102.5,195.2,106.4z"/>
	<path d="M102.5,80.3c0,4.9,0,9.7,0,14.6c0,2.3-0.7,4.2-2.5,5.5c-1.8,1.4-3.7,2.7-5.6,4c-1.4,1-2.9,2-4.2,3.1c-4,3.5-5.2,8.1-3.4,13
		c1.7,4.7,6.1,7.8,11.2,7.8c8,0,16.1,0.1,24.1,0c2,0,3.6,0.6,5,1.9c5.4,5.3,10.8,10.4,16.1,15.8c0.8,0.8,1.3,2.4,1.1,3.5
		c-0.5,4.4-1.2,8.7-2,13.1c-1.4,7.6-2.9,15.3-4.3,22.9c-0.3,1.8-1.2,3-2.9,3.7c-7.3,2.9-14.8,4.8-22.5,5.9c-2,0.3-3.4-0.3-4.8-1.6
		c-6.6-6.5-13.3-12.9-20-19.3c-2.7-2.6-5.3-5.3-8.1-7.8c-1.6-1.5-2.3-3.1-2.3-5.3c0.2-4.9,0.3-9.8,0.4-14.7
		c0.2-6.5-2.5-10.6-8.6-12.9c-9.5-3.6-18.9-7.3-28.4-10.8c-3.4-1.3-5.4-3.3-6.6-6.9c-2.9-9-6.3-17.9-9.4-26.9
		c-1.9-5.7-5.7-9-11.6-10c-1-0.2-2.1-0.5-3.1-0.8c-2.1-0.6-3.1-2.1-2.5-4.3c2.8-10,7.3-19.3,13.2-27.9c1.1-1.6,2.7-1.2,4.1-1
		c3.7,0.6,7.4,1.4,11.2,2.2c7.4,1.6,14.7,3.2,22.1,4.7c2.1,0.4,3.7,1.4,4.8,3.2c1,1.7,2,3.4,3,5.2c0.9,1.6,1.8,3.1,2.7,4.7
		c4.8,7.9,17.6,7.3,21.6-0.5c0.5-0.9,1.1-1.8,1.6-2.7c1.5-2.5,3.7-3.4,6.3-2.7c2.7,0.7,4.2,2.7,4.3,5.6
		C102.6,70,102.5,75.2,102.5,80.3z"/>
</g>
</svg>
