<?xml version="1.0" encoding="utf-8"?>
<!-- Generator: Adobe Illustrator 21.0.0, SVG Export Plug-In . SVG Version: 6.00 Build 0)  -->
<svg version="1.1" id="Capa_1" xmlns="http://www.w3.org/2000/svg" xmlns:xlink="http://www.w3.org/1999/xlink" x="0px" y="0px"
	 viewBox="0 0 512 512" style="enable-background:new 0 0 512 512;" xml:space="preserve">
<g>
	<path d="M411,262.9V215c0-69.8-46.4-129-110-148.3V45c0-24.8-20.2-45-45-45s-45,20.2-45,45v21.7C147.4,86,101,145.2,101,215v47.9
		c0,61.3-23.4,119.5-65.8,163.8c-4.2,4.3-5.3,10.7-3,16.3S40,452,46,452h136.5c7,34.2,37.3,60,73.5,60c36.2,0,66.5-25.8,73.5-60H466
		c6,0,11.4-3.6,13.8-9.1s1.2-11.9-3-16.3C434.4,382.3,411,324.2,411,262.9z M241,45c0-8.3,6.7-15,15-15s15,6.7,15,15v15.7
		c-4.9-0.5-9.9-0.7-15-0.7s-10.1,0.3-15,0.7V45z M256,482c-19.6,0-36.2-12.5-42.4-30h84.8C292.2,469.5,275.6,482,256,482L256,482z
		 M78.3,422c34.2-45.8,52.7-101.2,52.7-159.1V215c0-68.9,56.1-125,125-125s125,56.1,125,125v47.9c0,57.9,18.5,113.3,52.7,159.1H78.3
		z"/>
	<path d="M451,215c0,8.3,6.7,15,15,15s15-6.7,15-15c0-60.1-23.4-116.6-65.9-159.1c-5.9-5.9-15.4-5.9-21.2,0s-5.9,15.4,0,21.2
		C430.7,113.9,451,162.9,451,215L451,215z"/>
	<path d="M46,230c8.3,0,15-6.7,15-15c0-52.1,20.3-101.1,57.1-137.9c5.9-5.9,5.9-15.4,0-21.2c-5.9-5.9-15.4-5.9-21.2,0
		C54.4,98.4,31,154.9,31,215C31,223.3,37.7,230,46,230z"/>
</g>
</svg>
